<svg width="45" height="45" viewBox="0 0 45 45" fill="none" xmlns="http://www.w3.org/2000/svg">
<rect width="45" height="45" rx="10" fill="#F94AA5"/>
<path d="M22.5 10C23.2367 10 23.9432 10.2927 24.4642 10.8136C24.9851 11.3345 25.2778 12.0411 25.2778 12.7778C25.2778 13.5145 24.9851 14.221 24.4642 14.742C23.9432 15.2629 23.2367 15.5556 22.5 15.5556C21.7633 15.5556 21.0567 15.2629 20.5358 14.742C20.0149 14.221 19.7222 13.5145 19.7222 12.7778C19.7222 12.0411 20.0149 11.3345 20.5358 10.8136C21.0567 10.2927 21.7633 10 22.5 10ZM26.6667 23.5417C26.6667 24.6267 26.1154 25.5816 25.2778 26.1415V28.0556H19.7222V26.1415C18.8845 25.5816 18.3333 24.6267 18.3333 23.5417V21.8056C18.3333 19.5052 20.1997 17.6389 22.5 17.6389C24.8003 17.6389 26.6667 19.5052 26.6667 21.8056V23.5417ZM27.3611 28.0556V26.8707C28.2248 25.8941 28.75 24.605 28.75 23.1944V21.8056C28.75 20.6467 28.4332 19.566 27.8863 18.6328C28.3681 18.4375 28.8932 18.3333 29.4444 18.3333C31.7448 18.3333 33.6111 20.1997 33.6111 22.5V23.8889C33.6111 24.9175 33.0512 25.816 32.2222 26.2934V28.0556H27.3611ZM12.7778 26.2934C11.9488 25.816 11.3889 24.9175 11.3889 23.8889V22.5C11.3889 20.1997 13.2552 18.3333 15.5556 18.3333C16.1068 18.3333 16.6319 18.4418 17.1137 18.6328C16.5668 19.5616 16.25 20.6467 16.25 21.8056V23.1944C16.25 24.605 16.7752 25.8898 17.6389 26.8707V28.0556H12.7778V26.2934ZM15.5556 11.3889C15.8747 11.3889 16.1908 11.4518 16.4857 11.5739C16.7806 11.6961 17.0485 11.8751 17.2742 12.1008C17.4999 12.3265 17.6789 12.5944 17.8011 12.8893C17.9232 13.1842 17.9861 13.5003 17.9861 13.8194C17.9861 14.1386 17.9232 14.4547 17.8011 14.7496C17.6789 15.0445 17.4999 15.3124 17.2742 15.5381C17.0485 15.7638 16.7806 15.9428 16.4857 16.065C16.1908 16.1871 15.8747 16.25 15.5556 16.25C15.2364 16.25 14.9203 16.1871 14.6254 16.065C14.3305 15.9428 14.0626 15.7638 13.8369 15.5381C13.6112 15.3124 13.4322 15.0445 13.31 14.7496C13.1879 14.4547 13.125 14.1386 13.125 13.8194C13.125 13.5003 13.1879 13.1842 13.31 12.8893C13.4322 12.5944 13.6112 12.3265 13.8369 12.1008C14.0626 11.8751 14.3305 11.6961 14.6254 11.5739C14.9203 11.4518 15.2364 11.3889 15.5556 11.3889ZM29.4444 11.3889C29.7636 11.3889 30.0797 11.4518 30.3746 11.5739C30.6695 11.6961 30.9374 11.8751 31.1631 12.1008C31.3888 12.3265 31.5678 12.5944 31.69 12.8893C31.8121 13.1842 31.875 13.5003 31.875 13.8194C31.875 14.1386 31.8121 14.4547 31.69 14.7496C31.5678 15.0445 31.3888 15.3124 31.1631 15.5381C30.9374 15.7638 30.6695 15.9428 30.3746 16.065C30.0797 16.1871 29.7636 16.25 29.4444 16.25C29.1253 16.25 28.8092 16.1871 28.5143 16.065C28.2194 15.9428 27.9515 15.7638 27.7258 15.5381C27.5001 15.3124 27.3211 15.0445 27.1989 14.7496C27.0768 14.4547 27.0139 14.1386 27.0139 13.8194C27.0139 13.5003 27.0768 13.1842 27.1989 12.8893C27.3211 12.5944 27.5001 12.3265 27.7258 12.1008C27.9515 11.8751 28.2194 11.6961 28.5143 11.5739C28.8092 11.4518 29.1253 11.3889 29.4444 11.3889ZM11.0417 30.1389H33.9583C34.5356 30.1389 35 30.6033 35 31.1806C35 31.7578 34.5356 32.2222 33.9583 32.2222H11.0417C10.4644 32.2222 10 31.7578 10 31.1806C10 30.6033 10.4644 30.1389 11.0417 30.1389Z" fill="white"/>
</svg>
