<svg width="45" height="45" viewBox="0 0 45 45" fill="none" xmlns="http://www.w3.org/2000/svg">
<rect width="45" height="45" rx="10" fill="#F97E4A"/>
<path d="M26.9271 30.8333H27.9687V26.6667H26.9271V30.8333ZM29.5312 30.8333H30.5729V26.6667H29.5312V30.8333ZM16.25 19.375H28.75V17.2917H16.25V19.375ZM28.75 33.9583C27.309 33.9583 26.0809 33.4503 25.0656 32.4344C24.0503 31.4184 23.5424 30.1903 23.5417 28.75C23.541 27.3097 24.049 26.0816 25.0656 25.0656C26.0823 24.0497 27.3104 23.5417 28.75 23.5417C30.1896 23.5417 31.4181 24.0497 32.4354 25.0656C33.4528 26.0816 33.9604 27.3097 33.9583 28.75C33.9562 30.1903 33.4483 31.4187 32.4344 32.4354C31.4205 33.4521 30.1924 33.9597 28.75 33.9583ZM13.125 32.9167V15.2083C13.125 14.6354 13.3292 14.1451 13.7375 13.7375C14.1458 13.3299 14.6361 13.1257 15.2083 13.125H29.7917C30.3646 13.125 30.8552 13.3292 31.2635 13.7375C31.6719 14.1458 31.8757 14.6361 31.875 15.2083V22.1615C31.5451 22.0052 31.2066 21.875 30.8594 21.7708C30.5122 21.6667 30.1562 21.5885 29.7917 21.5365V15.2083H15.2083V29.8437H21.5365C21.6233 30.3819 21.758 30.8941 21.9406 31.3802C22.1233 31.8663 22.3618 32.3264 22.6562 32.7604L22.5 32.9167L20.9375 31.3542L19.375 32.9167L17.8125 31.3542L16.25 32.9167L14.6875 31.3542L13.125 32.9167ZM16.25 27.7083H21.5365C21.5885 27.3437 21.6667 26.9878 21.7708 26.6406C21.875 26.2934 22.0052 25.9549 22.1615 25.625H16.25V27.7083ZM16.25 23.5417H23.6458C24.3056 22.8993 25.074 22.3913 25.951 22.0177C26.8281 21.6441 27.7611 21.4576 28.75 21.4583H16.25V23.5417Z" fill="white"/>
</svg>
