<svg width="45" height="45" viewBox="0 0 45 45" fill="none" xmlns="http://www.w3.org/2000/svg">
<rect width="45" height="45" rx="10" fill="#4AAAF9"/>
<g clip-path="url(#clip0_87_1577)">
<path fill-rule="evenodd" clip-rule="evenodd" d="M22.0469 14.6875H32.6562L33.4531 15.4688V22.5109C32.965 22.1424 32.4354 21.8325 31.875 21.5875V19.3594H22.0156L20.6719 20.7031L20.125 20.9375H13.1094V30.3125H21.0938C21.2042 30.8573 21.3688 31.3781 21.5875 31.875H12.3594L11.5781 31.0938V13.9062L12.3594 13.125H20.1719L20.7188 13.3594L22.0469 14.6875ZM21.7031 17.8125H31.8594L31.875 16.2656H21.7188L21.1562 16.0312L19.8281 14.7031H13.125V19.3906H19.8125L21.1562 18.0469L21.7031 17.8125Z" fill="white"/>
<path fill-rule="evenodd" clip-rule="evenodd" d="M25.2782 23.5531C25.9606 23.0921 26.7273 22.7704 27.5344 22.6067C28.3415 22.4429 29.173 22.4402 29.9811 22.5988C30.7892 22.7574 31.558 23.0742 32.2433 23.5308C32.9286 23.9875 33.5168 24.5751 33.9743 25.2599C34.4318 25.9447 34.7494 26.7131 34.909 27.521C35.0685 28.3289 35.0668 29.1604 34.904 29.9677C34.7411 30.7749 34.4204 31.542 33.9601 32.2249C33.4998 32.9078 32.9091 33.493 32.222 33.9469C30.8436 34.8573 29.1608 35.1851 27.5415 34.8584C25.9222 34.5318 24.4981 33.5773 23.5804 32.2037C22.6628 30.8301 22.3262 29.1491 22.6444 27.5281C22.9625 25.9071 23.9095 24.478 25.2782 23.5531ZM28.6064 31.35L32.3361 26.3781L31.0861 25.4406L27.8407 29.7672L25.8079 28.1406L24.8314 29.3594L27.4939 31.4906L28.6079 31.35H28.6064Z" fill="white"/>
</g>
<defs>
<clipPath id="clip0_87_1577">
<rect width="25" height="25" fill="white" transform="translate(10 10)"/>
</clipPath>
</defs>
</svg>
