<svg width="45" height="45" viewBox="0 0 45 45" fill="none" xmlns="http://www.w3.org/2000/svg">
<rect width="45" height="45" rx="10" fill="#4AAAF9"/>
<path d="M21.7083 21.243C24.1859 21.243 26.1944 19.2345 26.1944 16.7569C26.1944 14.2793 24.1859 12.2708 21.7083 12.2708C19.2307 12.2708 17.2222 14.2793 17.2222 16.7569C17.2222 19.2345 19.2307 21.243 21.7083 21.243Z" fill="white"/>
<path d="M24.5835 29.4445H29.4446V30.4167H24.5835V29.4445Z" fill="white"/>
<path d="M20.4166 30.8333V32.9166C20.4166 33.1008 20.4897 33.2775 20.62 33.4077C20.7502 33.5379 20.9268 33.6111 21.111 33.6111H32.9166C33.1007 33.6111 33.2774 33.5379 33.4076 33.4077C33.5378 33.2775 33.611 33.1008 33.611 32.9166V25.9722C33.611 25.788 33.5378 25.6114 33.4076 25.4812C33.2774 25.3509 33.1007 25.2778 32.9166 25.2778H28.0555V24.2569C28.0555 24.0727 27.9823 23.8961 27.8521 23.7659C27.7218 23.6356 27.5452 23.5625 27.361 23.5625C27.1768 23.5625 27.0002 23.6356 26.87 23.7659C26.7397 23.8961 26.6666 24.0727 26.6666 24.2569V25.2778H25.2777V22.7916C24.0977 22.5986 22.904 22.501 21.7082 22.5C19.0713 22.4888 16.4639 23.0553 14.0693 24.1597C13.6752 24.3457 13.3428 24.6408 13.1113 25.0101C12.8799 25.3794 12.7593 25.8073 12.7638 26.243V30.8333H20.4166ZM32.2221 32.2222H21.8055V26.6666H26.6666V26.9583C26.6666 27.1425 26.7397 27.3191 26.87 27.4494C27.0002 27.5796 27.1768 27.6528 27.361 27.6528C27.5452 27.6528 27.7218 27.5796 27.8521 27.4494C27.9823 27.3191 28.0555 27.1425 28.0555 26.9583V26.6666H32.2221V32.2222Z" fill="white"/>
</svg>
