<svg width="45" height="45" viewBox="0 0 45 45" fill="none" xmlns="http://www.w3.org/2000/svg">
<rect width="45" height="45" rx="10" fill="#F97E4A"/>
<path d="M30.3125 19.375C31.1413 19.375 31.9362 19.7042 32.5222 20.2903C33.1083 20.8763 33.4375 21.6712 33.4375 22.5V30.3125C33.4375 31.1413 33.1083 31.9362 32.5222 32.5222C31.9362 33.1083 31.1413 33.4375 30.3125 33.4375H25.625C24.7962 33.4375 24.0013 33.1083 23.4153 32.5222C22.8292 31.9362 22.5 31.1413 22.5 30.3125V22.5C22.5 21.6712 22.8292 20.8763 23.4153 20.2903C24.0013 19.7042 24.7962 19.375 25.625 19.375H30.3125ZM20.9375 24.0625H15.4688C15.2615 24.0625 15.0628 24.1448 14.9163 24.2913C14.7698 24.4378 14.6875 24.6365 14.6875 24.8438V25.625C14.6875 27.8719 16.925 30.3125 20.9375 30.3125C20.9375 30.8594 21.0344 31.3813 21.2063 31.8687C21.1177 31.8729 21.0281 31.875 20.9375 31.875C16.0312 31.875 13.125 28.7047 13.125 25.625V24.8438C13.125 24.2221 13.3719 23.626 13.8115 23.1865C14.251 22.7469 14.8471 22.5 15.4688 22.5H20.9375V24.0625ZM26.4062 22.5C26.199 22.5 26.0003 22.5823 25.8538 22.7288C25.7073 22.8753 25.625 23.074 25.625 23.2812C25.625 23.4885 25.7073 23.6872 25.8538 23.8337C26.0003 23.9802 26.199 24.0625 26.4062 24.0625H29.5312C29.7385 24.0625 29.9372 23.9802 30.0837 23.8337C30.2302 23.6872 30.3125 23.4885 30.3125 23.2812C30.3125 23.074 30.2302 22.8753 30.0837 22.7288C29.9372 22.5823 29.7385 22.5 29.5312 22.5H26.4062ZM20.9375 12.3438C21.6045 12.3443 22.2623 12.5002 22.8586 12.799C23.455 13.0978 23.9736 13.5314 24.3733 14.0653C24.7731 14.5993 25.0431 15.2189 25.1619 15.8753C25.2807 16.5317 25.2451 17.2067 25.0578 17.8469C24.195 17.9526 23.3786 18.2962 22.6998 18.8392C22.021 19.3823 21.5066 20.1033 21.2141 20.9219C21.1219 20.9281 21.0297 20.9375 20.9375 20.9375C19.7979 20.9375 18.705 20.4848 17.8992 19.679C17.0933 18.8732 16.6406 17.7802 16.6406 16.6406C16.6406 15.501 17.0933 14.4081 17.8992 13.6023C18.705 12.7965 19.7979 12.3438 20.9375 12.3438ZM20.9375 13.9062C20.2123 13.9062 19.5168 14.1943 19.004 14.7071C18.4912 15.2199 18.2031 15.9154 18.2031 16.6406C18.2031 17.3658 18.4912 18.0613 19.004 18.5741C19.5168 19.0869 20.2123 19.375 20.9375 19.375C21.6627 19.375 22.3582 19.0869 22.871 18.5741C23.3838 18.0613 23.6719 17.3658 23.6719 16.6406C23.6719 15.9154 23.3838 15.2199 22.871 14.7071C22.3582 14.1943 21.6627 13.9062 20.9375 13.9062Z" fill="white"/>
</svg>
