<svg width="45" height="45" viewBox="0 0 45 45" fill="none" xmlns="http://www.w3.org/2000/svg">
<rect width="45" height="45" rx="10" fill="#F94AA5"/>
<path fill-rule="evenodd" clip-rule="evenodd" d="M25.7242 14.8979C25.6809 14.6698 25.3951 14.5899 25.2398 14.7625C23.7754 16.3896 21.224 16.3896 19.7597 14.7625C19.6043 14.5899 19.3186 14.6698 19.2752 14.8979L18.6225 18.3333H26.3769L25.7242 14.8979ZM26.7728 20.4166H18.2267L18.0288 21.4583H26.9707L26.7728 20.4166ZM17.2285 14.509L15.9082 21.4583H14.1665V23.5416H30.8332V21.4583H29.0913L27.7709 14.509C27.406 12.588 24.9994 11.9154 23.6913 13.3689C23.0545 14.0764 21.945 14.0764 21.3082 13.3689C20.0001 11.9154 17.5935 12.588 17.2285 14.509ZM18.3332 30.8333L16.2499 29.7916L14.1665 28.7499V32.9166H30.8332V28.7499L28.7499 29.7916L26.6665 30.8333L22.4999 32.9166L18.3332 30.8333ZM28.7499 24.5832H16.2499V25.6249H16.2529C16.3208 27.0746 17.5177 28.2291 18.9842 28.2291H19.3749C20.4822 28.2291 21.0818 27.5328 21.3258 26.6551C21.4798 26.1008 21.9246 25.6249 22.4999 25.6249C23.0751 25.6249 23.5199 26.1008 23.6739 26.6551C23.9179 27.5328 24.5175 28.2291 25.6249 28.2291H26.0155C27.482 28.2291 28.6789 27.0746 28.7468 25.6249H28.7499V24.5832Z" fill="white"/>
</svg>
