<svg width="45" height="45" viewBox="0 0 45 45" fill="none" xmlns="http://www.w3.org/2000/svg">
<rect width="45" height="45" rx="10" fill="#F94AA5"/>
<path d="M21.4658 32.3958H20.0054C16.271 32.3958 14.4043 32.3958 13.2439 31.2135C12.0835 30.0312 12.0835 28.1281 12.0835 24.3229C12.0835 20.5177 12.0835 18.6146 13.2439 17.4323C14.4043 16.25 16.271 16.25 20.0054 16.25H23.9668C27.7012 16.25 29.5689 16.25 30.7293 17.4323C31.622 18.3417 31.8272 19.6781 31.8752 21.9792V23.5417" stroke="white" stroke-width="1.5625" stroke-linecap="round"/>
<path d="M29.792 29.2709H26.667M26.667 32.3959C25.8382 32.3959 25.0433 32.0666 24.4573 31.4806C23.8712 30.8945 23.542 30.0997 23.542 29.2709C23.542 28.4421 23.8712 27.6472 24.4573 27.0612C25.0433 26.4751 25.8382 26.1459 26.667 26.1459M29.792 32.3959C30.6208 32.3959 31.4156 32.0666 32.0017 31.4806C32.5878 30.8945 32.917 30.0997 32.917 29.2709C32.917 28.4421 32.5878 27.6472 32.0017 27.0612C31.4156 26.4751 30.6208 26.1459 29.792 26.1459" stroke="white" stroke-width="1.5625" stroke-linecap="round"/>
<path d="M26.667 16.25L26.5628 15.9271C26.0472 14.3229 25.7899 13.5209 25.1764 13.0625C24.5618 12.6042 23.7472 12.6042 22.1159 12.6042H21.842C20.2118 12.6042 19.3962 12.6042 18.7826 13.0625C18.168 13.5209 17.9107 14.3229 17.3951 15.9271L17.292 16.25" stroke="white" stroke-width="1.5625"/>
</svg>
