<svg width="45" height="45" viewBox="0 0 45 45" fill="none" xmlns="http://www.w3.org/2000/svg">
<rect width="45" height="45" rx="10" fill="#4AAAF9"/>
<path d="M22.5 20.9375C22.809 20.9375 23.1111 21.0291 23.3681 21.2008C23.625 21.3725 23.8253 21.6165 23.9435 21.902C24.0618 22.1875 24.0927 22.5017 24.0325 22.8048C23.9722 23.1079 23.8233 23.3863 23.6048 23.6048C23.3863 23.8233 23.1079 23.9722 22.8048 24.0324C22.5017 24.0927 22.1875 24.0618 21.902 23.9435C21.6165 23.8253 21.3725 23.625 21.2008 23.368C21.0291 23.1111 20.9375 22.809 20.9375 22.5C20.9375 22.0856 21.1021 21.6881 21.3951 21.3951C21.6881 21.1021 22.0856 20.9375 22.5 20.9375ZM19.375 22.5C19.375 22.1892 19.2515 21.8911 19.0317 21.6713C18.812 21.4516 18.5139 21.3281 18.2031 21.3281H14.3428C14.6402 19.2401 15.7316 17.3474 17.3896 16.0439L19.3144 19.375C19.3898 19.5112 19.4916 19.631 19.6138 19.7275C19.736 19.8239 19.8762 19.895 20.0263 19.9367C20.1763 19.9783 20.3331 19.9897 20.4875 19.9701C20.642 19.9504 20.791 19.9002 20.9258 19.8224C21.0606 19.7445 21.1786 19.6406 21.2728 19.5166C21.367 19.3926 21.4355 19.2511 21.4745 19.1004C21.5134 18.9496 21.5218 18.7927 21.4994 18.6386C21.477 18.4845 21.424 18.3365 21.3437 18.2031L19.1953 14.4922C19.0596 14.2568 18.8763 14.0524 18.6571 13.8919C18.4379 13.7315 18.1876 13.6185 17.9223 13.5602C17.657 13.502 17.3824 13.4997 17.1161 13.5535C16.8499 13.6074 16.5978 13.7162 16.376 13.873C15.1284 14.7526 14.087 15.893 13.3238 17.2149C12.5606 18.5369 12.0939 20.009 11.956 21.5293C11.9317 21.802 11.9644 22.0768 12.052 22.3362C12.1396 22.5956 12.2802 22.8339 12.4648 23.0361C12.6478 23.2363 12.8704 23.3963 13.1186 23.5057C13.3667 23.6152 13.635 23.6718 13.9062 23.6718H18.2031C18.5139 23.6718 18.812 23.5484 19.0317 23.3286C19.2515 23.1088 19.375 22.8108 19.375 22.5ZM33.039 21.5293C32.9013 20.0091 32.4346 18.5371 31.6714 17.2153C30.9082 15.8934 29.8667 14.7533 28.6191 13.874C28.3974 13.7171 28.1453 13.6083 27.8791 13.5543C27.6129 13.5004 27.3383 13.5026 27.073 13.5608C26.8077 13.619 26.5574 13.7318 26.3382 13.8922C26.1189 14.0526 25.9356 14.2569 25.7998 14.4922L23.6562 18.2031C23.5075 18.4718 23.4702 18.7881 23.5524 19.084C23.6346 19.3799 23.8296 19.6318 24.0955 19.7853C24.3615 19.9389 24.6771 19.982 24.9744 19.9052C25.2718 19.8285 25.5271 19.6381 25.6855 19.375L27.6103 16.042C29.2688 17.3459 30.3602 19.2394 30.6572 21.3281H26.7969C26.4861 21.3281 26.188 21.4516 25.9682 21.6713C25.7484 21.8911 25.625 22.1892 25.625 22.5C25.625 22.8108 25.7484 23.1088 25.9682 23.3286C26.188 23.5484 26.4861 23.6718 26.7969 23.6718H31.0937C31.3641 23.6711 31.6314 23.6142 31.8787 23.5048C32.126 23.3953 32.3479 23.2357 32.5303 23.0361C32.7149 22.8339 32.8555 22.5956 32.9431 22.3362C33.0306 22.0768 33.0633 21.802 33.039 21.5293ZM25.664 25.6357C25.5086 25.3665 25.2527 25.17 24.9524 25.0895C24.6521 25.009 24.3322 25.0511 24.063 25.2065C23.7937 25.3619 23.5973 25.6179 23.5168 25.9182C23.4363 26.2184 23.4784 26.5384 23.6338 26.8076L25.5459 30.1172C23.5899 30.8958 21.41 30.8958 19.4541 30.1172L21.3662 26.8056C21.5216 26.5364 21.5637 26.2165 21.4832 25.9162C21.4027 25.6159 21.2062 25.36 20.937 25.2046C20.6678 25.0492 20.3478 25.0071 20.0476 25.0876C19.7473 25.1681 19.4913 25.3645 19.3359 25.6338L17.2051 29.3252C17.0694 29.5601 16.9841 29.8206 16.9547 30.0903C16.9253 30.36 16.9524 30.6328 17.0342 30.8914C17.1161 31.1501 17.2509 31.3888 17.4302 31.5924C17.6094 31.7961 17.829 31.9601 18.0752 32.0742C19.4626 32.7137 20.9722 33.0449 22.5 33.0449C24.0277 33.0449 25.5373 32.7137 26.9248 32.0742C27.1709 31.9601 27.3906 31.7961 27.5698 31.5924C27.749 31.3888 27.8839 31.1501 27.9657 30.8914C28.0476 30.6328 28.0747 30.36 28.0452 30.0903C28.0158 29.8206 27.9306 29.5601 27.7949 29.3252L25.664 25.6357Z" fill="white"/>
</svg>
