<svg width="45" height="45" viewBox="0 0 45 45" fill="none" xmlns="http://www.w3.org/2000/svg">
<rect width="45" height="45" rx="10" fill="#F97E4A"/>
<path d="M17.2896 25.625H20.8614M17.2896 21.4584H25.6229M24.0604 12.0834H18.8521C18.6469 12.0834 18.4437 12.1238 18.2541 12.2023C18.0645 12.2808 17.8923 12.3959 17.7472 12.541C17.6021 12.6861 17.487 12.8584 17.4085 13.0479C17.33 13.2375 17.2896 13.4407 17.2896 13.6459C17.2896 13.8511 17.33 14.0542 17.4085 14.2438C17.487 14.4334 17.6021 14.6056 17.7472 14.7507C17.8923 14.8958 18.0645 15.0109 18.2541 15.0894C18.4437 15.168 18.6469 15.2084 18.8521 15.2084H24.0604C24.2656 15.2084 24.4688 15.168 24.6583 15.0894C24.8479 15.0109 25.0201 14.8958 25.1652 14.7507C25.3103 14.6056 25.4254 14.4334 25.5039 14.2438C25.5825 14.0542 25.6229 13.8511 25.6229 13.6459C25.6229 13.4407 25.5825 13.2375 25.5039 13.0479C25.4254 12.8584 25.3103 12.6861 25.1652 12.541C25.0201 12.3959 24.8479 12.2808 24.6583 12.2023C24.4688 12.1238 24.2656 12.0834 24.0604 12.0834Z" stroke="white" stroke-width="1.5625" stroke-linecap="round" stroke-linejoin="round"/>
<path d="M29.7898 24.0625V19.8781C29.7898 16.9312 29.7898 15.4583 28.8742 14.5427C28.2075 13.876 27.2419 13.6948 25.6242 13.6458M22.4971 32.9166H19.3721C16.4262 32.9166 14.9523 32.9166 14.0377 32C13.1221 31.0854 13.1221 29.6125 13.1221 26.6666V19.8771C13.1221 16.9302 13.1221 15.4573 14.0377 14.5417C14.7054 13.875 15.671 13.6937 17.2887 13.6448M24.5814 30.8333C24.5814 30.8333 25.6231 30.8333 26.6648 32.9166C26.6648 32.9166 28.9314 27.7083 31.8731 26.6666" stroke="white" stroke-width="1.5625" stroke-linecap="round" stroke-linejoin="round"/>
</svg>
