<svg width="90" height="172" viewBox="0 0 90 172" fill="none" xmlns="http://www.w3.org/2000/svg">
<rect x="21" width="48" height="48" rx="10" fill="#E8F8FF"/>
<g clip-path="url(#clip0_342_3331)">
<path d="M42.2812 17.5509V16.6371M42.2812 17.5509C43.8995 17.5509 44.6709 18.3463 44.6709 19.284M42.2812 17.5509C40.6612 17.5509 39.8915 18.3 39.8915 19.284C39.8915 20.0503 40.6629 20.7874 42.2812 21.0189C43.9012 21.2503 45.0361 21.7834 45.0361 22.9389C45.0361 23.9811 43.9012 24.8537 42.2812 24.8537C40.6612 24.8537 39.5264 24.1097 39.5264 23.1189M42.2812 25.7691V24.8571" stroke="#176384" stroke-width="1.5" stroke-linecap="round" stroke-linejoin="round"/>
<path d="M50.2972 23.6469C50.4595 22.8971 50.5406 22.0823 50.5406 21.2023C50.5406 15.9103 47.5646 12.9326 42.2726 12.9326C36.9806 12.9326 34.0029 15.9103 34.0029 21.2023C34.0029 25.2069 35.7086 27.8846 38.8321 28.9509M39.9035 35.0674C39.9035 35.0674 43.9475 29.724 45.7406 29.8697C47.1806 29.9863 47.3092 33.048 48.6446 32.496C49.5361 32.1274 54.6172 27.5177 55.8669 26.376" stroke="#176384" stroke-width="1.5" stroke-linecap="round" stroke-linejoin="round"/>
<path d="M51.5933 25.9937C52.9235 25.6611 54.6515 25.7949 55.9133 26.328C56.2458 27.6566 56.1121 29.3846 55.5807 30.648" stroke="#176384" stroke-width="1.5" stroke-linecap="round" stroke-linejoin="round"/>
</g>
<line y1="87.5" x2="90" y2="87.5" stroke="#A3A3A3" stroke-dasharray="2 2"/>
<rect x="21" y="124" width="48" height="48" rx="10" fill="#FFEFE4"/>
<path d="M44.931 137.558C45.0548 137.403 45.2082 137.274 45.3822 137.179C45.5561 137.084 45.7473 137.024 45.9445 137.003C46.1418 136.982 46.3412 137 46.5313 137.057C46.7214 137.114 46.8984 137.207 47.052 137.333L51.945 141.329C52.2141 141.549 52.3986 141.855 52.467 142.196C52.5354 142.536 52.4834 142.89 52.32 143.196C51.8922 143.066 51.4473 143 51 143H50.55L50.997 142.49L48.42 140.385L46.2945 143.001H44.361L47.2575 139.437L46.1025 138.494L42.5055 143H40.5855L44.931 137.558ZM48.75 150.5C48.5511 150.5 48.3603 150.579 48.2197 150.72C48.079 150.86 48 151.051 48 151.25C48 151.449 48.079 151.64 48.2197 151.78C48.3603 151.921 48.5511 152 48.75 152H50.25C50.4489 152 50.6397 151.921 50.7803 151.78C50.921 151.64 51 151.449 51 151.25C51 151.051 50.921 150.86 50.7803 150.72C50.6397 150.579 50.4489 150.5 50.25 150.5H48.75ZM37.5 143.75C37.5 143.551 37.579 143.36 37.7197 143.22C37.8603 143.079 38.0511 143 38.25 143H39.087L40.2795 141.5H38.25C37.6533 141.5 37.081 141.737 36.659 142.159C36.2371 142.581 36 143.153 36 143.75V152.75C36 153.745 36.3951 154.698 37.0983 155.402C37.8016 156.105 38.7554 156.5 39.75 156.5H51C51.7956 156.5 52.5587 156.184 53.1213 155.621C53.6839 155.059 54 154.296 54 153.5V147.5C54 146.704 53.6839 145.941 53.1213 145.379C52.5587 144.816 51.7956 144.5 51 144.5H38.25C38.0511 144.5 37.8603 144.421 37.7197 144.28C37.579 144.14 37.5 143.949 37.5 143.75ZM37.5 152.75V145.872C37.736 145.956 37.986 145.999 38.25 146H51C51.3978 146 51.7794 146.158 52.0607 146.439C52.342 146.721 52.5 147.102 52.5 147.5V153.5C52.5 153.898 52.342 154.279 52.0607 154.561C51.7794 154.842 51.3978 155 51 155H39.75C39.1533 155 38.581 154.763 38.159 154.341C37.7371 153.919 37.5 153.347 37.5 152.75Z" fill="#CD5300"/>
<defs>
<clipPath id="clip0_342_3331">
<rect width="24" height="24" fill="white" transform="translate(33 12)"/>
</clipPath>
</defs>
</svg>
