<svg width="46" height="45" viewBox="0 0 46 45" fill="none" xmlns="http://www.w3.org/2000/svg">
<rect x="0.666992" width="45" height="45" rx="10" fill="#F97E4A"/>
<g clip-path="url(#clip0_87_2518)">
<path d="M34.6154 19.625L34.3154 19.325C34.5095 18.9218 34.576 18.4689 34.5061 18.0268C34.4363 17.5848 34.2334 17.1745 33.9244 16.8507C33.7139 16.6405 33.4608 16.4779 33.1822 16.3737C32.9036 16.2694 32.6059 16.2261 32.3091 16.2466C32.0302 16.2623 31.7563 16.3274 31.5001 16.4389V11.3889H12.0557V33.6111H31.5001V22.375L33.6459 20.2292L33.8293 20.4118C33.8533 20.4357 33.8724 20.4641 33.8854 20.4954C33.8984 20.5267 33.9051 20.5602 33.9051 20.5941C33.9051 20.628 33.8984 20.6616 33.8854 20.6928C33.8724 20.7241 33.8533 20.7525 33.8293 20.7764L32.1952 22.4111C32.091 22.5153 32.0324 22.6566 32.0323 22.8039C32.0323 22.9513 32.0907 23.0927 32.1949 23.1969C32.2991 23.3011 32.4403 23.3597 32.5877 23.3598C32.7351 23.3599 32.8764 23.3014 32.9807 23.1972L34.6154 21.5625C34.8719 21.3054 35.016 20.957 35.016 20.5938C35.016 20.2305 34.8719 19.8822 34.6154 19.625ZM16.2223 15.6945H27.3348V16.8056H16.2223V15.6945ZM16.2223 18.4722H27.3348V19.5834H16.2223V18.4722ZM16.2223 21.25H23.514V22.3611H16.2223V21.25ZM26.4946 30.7611H21.0751C20.4487 30.7611 19.8626 30.7021 19.5515 30.1889C19.2327 29.6646 19.5494 29.0556 19.7807 28.6097C19.8216 28.5313 19.7307 28.4341 19.6265 28.5417C19.3209 28.8556 18.8348 29.4209 18.4439 29.875C18.0307 30.3556 17.8668 30.5438 17.7793 30.6229C17.6867 30.7305 17.561 30.8041 17.4219 30.8323C17.2828 30.8605 17.1383 30.8415 17.0112 30.7785C16.8972 30.7125 16.8078 30.611 16.7568 30.4895C16.7058 30.3681 16.6959 30.2332 16.7286 30.1056C16.7577 29.932 17.2536 28 17.7029 26.2632C17.1057 27.3236 15.2098 30.4993 15.1209 30.6486C15.0548 30.7594 14.9474 30.8394 14.8223 30.871C14.6972 30.9026 14.5647 30.8832 14.4539 30.817C14.3431 30.7509 14.2632 30.6435 14.2316 30.5184C14.2 30.3933 14.2194 30.2608 14.2855 30.15C14.3098 30.1104 16.6848 26.1306 16.9841 25.5528C17.0817 25.3219 17.2633 25.1365 17.4922 25.0343C17.7212 24.9321 17.9804 24.9206 18.2175 25.0021C18.4315 25.0891 18.6046 25.254 18.7019 25.4635C18.7992 25.673 18.8134 25.9116 18.7418 26.1313C18.4918 27.0952 18.2369 28.0841 18.0404 28.8535C18.3577 28.4868 18.6897 28.1104 18.9293 27.8639C19.1137 27.6423 19.3657 27.4873 19.6466 27.4224C19.9275 27.3576 20.2219 27.3866 20.4848 27.5049C20.6484 27.5878 20.7795 27.7231 20.857 27.8893C20.9346 28.0555 20.9542 28.2429 20.9126 28.4216C20.8461 28.6427 20.7557 28.856 20.6432 29.0577C20.4577 29.4431 20.5459 29.7882 21.0751 29.7882H26.4939C26.6228 29.7882 26.7464 29.8394 26.8376 29.9306C26.9288 30.0218 26.98 30.1454 26.98 30.2743C26.98 30.4033 26.9288 30.5269 26.8376 30.6181C26.7464 30.7092 26.6228 30.7604 26.4939 30.7604L26.4946 30.7611ZM25.0494 27.2542L23.2411 27.7313C23.2148 27.7386 23.187 27.7387 23.1606 27.7316C23.1342 27.7245 23.1102 27.7105 23.0911 27.691C23.0714 27.672 23.0573 27.648 23.0501 27.6216C23.0429 27.5952 23.0429 27.5674 23.0501 27.541L23.5112 25.7361L28.0876 21.1597L29.6154 22.6875L25.0494 27.2542ZM33.0119 19.291L30.4008 21.9021L28.873 20.3743L31.4841 17.7632C31.7177 17.5232 32.0319 17.3782 32.3661 17.3563L32.4286 17.3542C32.5597 17.3517 32.6901 17.3755 32.8119 17.424C32.9338 17.4725 33.0447 17.5449 33.1383 17.6368C33.339 17.8738 33.4383 18.1802 33.4146 18.4899C33.391 18.7995 33.2463 19.0873 33.0119 19.291Z" fill="white"/>
</g>
<defs>
<clipPath id="clip0_87_2518">
<rect width="25" height="25" fill="white" transform="translate(10.667 10)"/>
</clipPath>
</defs>
</svg>
