<svg width="46" height="45" viewBox="0 0 46 45" fill="none" xmlns="http://www.w3.org/2000/svg">
<rect x="0.333496" width="45" height="45" rx="10" fill="#4AAAF9"/>
<path d="M21.7918 16.25H24.9168L28.3439 12.8125C28.4408 12.7149 28.556 12.6374 28.6829 12.5845C28.8098 12.5316 28.946 12.5044 29.0835 12.5044C29.221 12.5044 29.3572 12.5316 29.4841 12.5845C29.611 12.6374 29.7263 12.7149 29.8231 12.8125L32.5106 15.5104C32.7046 15.7056 32.8135 15.9696 32.8135 16.2448C32.8135 16.52 32.7046 16.784 32.5106 16.9792L30.1252 19.375H21.7918V21.4584C21.7918 21.7346 21.6821 21.9996 21.4867 22.1949C21.2914 22.3903 21.0264 22.5 20.7502 22.5C20.4739 22.5 20.209 22.3903 20.0136 22.1949C19.8183 21.9996 19.7085 21.7346 19.7085 21.4584V18.3334C19.7085 17.7808 19.928 17.2509 20.3187 16.8602C20.7094 16.4695 21.2393 16.25 21.7918 16.25ZM15.5418 21.4584V25.625L13.1564 28.0104C12.9624 28.2056 12.8535 28.4696 12.8535 28.7448C12.8535 29.02 12.9624 29.284 13.1564 29.4792L15.8439 32.1771C15.9408 32.2747 16.056 32.3522 16.1829 32.4051C16.3098 32.458 16.446 32.4852 16.5835 32.4852C16.721 32.4852 16.8572 32.458 16.9841 32.4051C17.111 32.3522 17.2263 32.2747 17.3231 32.1771L21.7918 27.7084H25.9585C26.2348 27.7084 26.4997 27.5986 26.6951 27.4033C26.8904 27.2079 27.0002 26.943 27.0002 26.6667V25.625H28.0418C28.3181 25.625 28.5831 25.5153 28.7784 25.3199C28.9738 25.1246 29.0835 24.8596 29.0835 24.5834V23.5417H30.1252C30.4014 23.5417 30.6664 23.4319 30.8617 23.2366C31.0571 23.0412 31.1668 22.7763 31.1668 22.5V21.4584H23.8752V22.5C23.8752 23.0526 23.6557 23.5825 23.265 23.9732C22.8743 24.3639 22.3444 24.5834 21.7918 24.5834H19.7085C19.156 24.5834 18.6261 24.3639 18.2354 23.9732C17.8447 23.5825 17.6252 23.0526 17.6252 22.5V19.375L15.5418 21.4584Z" fill="white"/>
</svg>
