<svg width="45" height="45" viewBox="0 0 45 45" fill="none" xmlns="http://www.w3.org/2000/svg">
<rect width="45" height="45" rx="10" fill="#F94AA5"/>
<path d="M13.1252 31.875C12.83 31.875 12.5828 31.775 12.3835 31.575C12.1842 31.375 12.0842 31.1278 12.0835 30.8333V20.4167C12.0835 20.1215 12.1835 19.8743 12.3835 19.675C12.5835 19.4757 12.8307 19.3757 13.1252 19.375H16.771C17.0661 19.375 17.3137 19.475 17.5137 19.675C17.7137 19.875 17.8134 20.1222 17.8127 20.4167V30.8333C17.8127 31.1285 17.7127 31.376 17.5127 31.576C17.3127 31.776 17.0654 31.8757 16.771 31.875H13.1252ZM20.6772 31.875C20.3821 31.875 20.1349 31.775 19.9356 31.575C19.7363 31.375 19.6363 31.1278 19.6356 30.8333V14.1667C19.6356 13.8715 19.7356 13.6243 19.9356 13.425C20.1356 13.2257 20.3828 13.1257 20.6772 13.125H24.3231C24.6182 13.125 24.8658 13.225 25.0658 13.425C25.2658 13.625 25.3654 13.8722 25.3647 14.1667V30.8333C25.3647 31.1285 25.2647 31.376 25.0647 31.576C24.8647 31.776 24.6175 31.8757 24.3231 31.875H20.6772ZM28.2293 31.875C27.9342 31.875 27.687 31.775 27.4877 31.575C27.2884 31.375 27.1884 31.1278 27.1877 30.8333V22.5C27.1877 22.2049 27.2877 21.9576 27.4877 21.7583C27.6877 21.559 27.9349 21.459 28.2293 21.4583H31.8752C32.1703 21.4583 32.4179 21.5583 32.6179 21.7583C32.8179 21.9583 32.9175 22.2056 32.9168 22.5V30.8333C32.9168 31.1285 32.8168 31.376 32.6168 31.576C32.4168 31.776 32.1696 31.8757 31.8752 31.875H28.2293Z" fill="white"/>
</svg>
