<svg width="36" height="35" viewBox="0 0 36 35" fill="none" xmlns="http://www.w3.org/2000/svg">
<rect x="0.666992" width="35" height="35" rx="10" fill="#EA0909"/>
<path d="M14.834 23.5C14.4673 23.5 14.1535 23.3696 13.8927 23.1087C13.6318 22.8478 13.5011 22.5338 13.5007 22.1667V13.5C13.3118 13.5 13.1535 13.436 13.026 13.308C12.8984 13.18 12.8344 13.0218 12.834 12.8333C12.8335 12.6449 12.8975 12.4867 13.026 12.3587C13.1544 12.2307 13.3127 12.1667 13.5007 12.1667H16.1673C16.1673 11.9778 16.2313 11.8196 16.3593 11.692C16.4873 11.5644 16.6455 11.5004 16.834 11.5H19.5007C19.6895 11.5 19.848 11.564 19.976 11.692C20.104 11.82 20.1678 11.9782 20.1673 12.1667H22.834C23.0229 12.1667 23.1813 12.2307 23.3093 12.3587C23.4373 12.4867 23.5011 12.6449 23.5007 12.8333C23.5002 13.0218 23.4362 13.1802 23.3087 13.3087C23.1811 13.4371 23.0229 13.5009 22.834 13.5V22.1667C22.834 22.5333 22.7035 22.8473 22.4427 23.1087C22.1818 23.37 21.8678 23.5004 21.5007 23.5H14.834ZM21.5007 13.5H14.834V22.1667H21.5007V13.5ZM16.834 20.8333C17.0229 20.8333 17.1813 20.7693 17.3093 20.6413C17.4373 20.5133 17.5011 20.3551 17.5007 20.1667V15.5C17.5007 15.3111 17.4367 15.1529 17.3087 15.0253C17.1807 14.8978 17.0224 14.8338 16.834 14.8333C16.6455 14.8329 16.4873 14.8969 16.3593 15.0253C16.2313 15.1538 16.1673 15.312 16.1673 15.5V20.1667C16.1673 20.3556 16.2313 20.514 16.3593 20.642C16.4873 20.77 16.6455 20.8338 16.834 20.8333ZM19.5007 20.8333C19.6895 20.8333 19.848 20.7693 19.976 20.6413C20.104 20.5133 20.1678 20.3551 20.1673 20.1667V15.5C20.1673 15.3111 20.1033 15.1529 19.9753 15.0253C19.8473 14.8978 19.6891 14.8338 19.5007 14.8333C19.3122 14.8329 19.154 14.8969 19.026 15.0253C18.898 15.1538 18.834 15.312 18.834 15.5V20.1667C18.834 20.3556 18.898 20.514 19.026 20.642C19.154 20.77 19.3122 20.8338 19.5007 20.8333Z" fill="white"/>
</svg>
