<svg width="36" height="35" viewBox="0 0 36 35" fill="none" xmlns="http://www.w3.org/2000/svg">
<rect x="0.666992" width="35" height="35" rx="10" fill="#1153FA"/>
<path d="M19.5403 15.5133L20.1537 16.1267L14.1137 22.1667H13.5003V21.5533L19.5403 15.5133ZM21.9403 11.5C21.7737 11.5 21.6003 11.5667 21.4737 11.6933L20.2537 12.9133L22.7537 15.4133L23.9737 14.1933C24.0355 14.1317 24.0845 14.0584 24.1179 13.9777C24.1514 13.8971 24.1686 13.8106 24.1686 13.7233C24.1686 13.636 24.1514 13.5496 24.1179 13.4689C24.0845 13.3883 24.0355 13.315 23.9737 13.2533L22.4137 11.6933C22.2803 11.56 22.1137 11.5 21.9403 11.5ZM19.5403 13.6267L12.167 21V23.5H14.667L22.0403 16.1267L19.5403 13.6267Z" fill="white"/>
</svg>
