<svg width="40" height="40" viewBox="0 0 40 40" fill="none" xmlns="http://www.w3.org/2000/svg">
<rect width="40" height="40" rx="10" fill="#F2F2FF"/>
<path d="M20.0001 17.25C19.2707 17.25 18.5713 17.5397 18.0555 18.0555C17.5398 18.5712 17.2501 19.2707 17.2501 20C17.2501 20.7293 17.5398 21.4288 18.0555 21.9445C18.5713 22.4603 19.2707 22.75 20.0001 22.75C20.7294 22.75 21.4289 22.4603 21.9446 21.9445C22.4604 21.4288 22.7501 20.7293 22.7501 20C22.7501 19.2707 22.4604 18.5712 21.9446 18.0555C21.4289 17.5397 20.7294 17.25 20.0001 17.25ZM20.0001 24.5833C18.7845 24.5833 17.6187 24.1004 16.7592 23.2409C15.8996 22.3814 15.4167 21.2156 15.4167 20C15.4167 18.7844 15.8996 17.6186 16.7592 16.7591C17.6187 15.8996 18.7845 15.4167 20.0001 15.4167C21.2157 15.4167 22.3814 15.8996 23.241 16.7591C24.1005 17.6186 24.5834 18.7844 24.5834 20C24.5834 21.2156 24.1005 22.3814 23.241 23.2409C22.3814 24.1004 21.2157 24.5833 20.0001 24.5833ZM20.0001 13.125C15.4167 13.125 11.5026 15.9758 9.91675 20C11.5026 24.0242 15.4167 26.875 20.0001 26.875C24.5834 26.875 28.4976 24.0242 30.0834 20C28.4976 15.9758 24.5834 13.125 20.0001 13.125Z" fill="#6558EC"/>
</svg>
