<svg width="23" height="23" viewBox="0 0 23 23" fill="none" xmlns="http://www.w3.org/2000/svg">
<path d="M2.86458 14.8434C2.31205 14.8434 1.78214 14.6239 1.39144 14.2332C1.00074 13.8425 0.78125 13.3126 0.78125 12.7601C0.78125 12.2076 1.00074 11.6777 1.39144 11.287C1.78214 10.8963 2.31205 10.6768 2.86458 10.6768M19.5312 14.8434C20.0838 14.8434 20.6137 14.6239 21.0044 14.2332C21.3951 13.8425 21.6146 13.3126 21.6146 12.7601C21.6146 12.2076 21.3951 11.6777 21.0044 11.287C20.6137 10.8963 20.0838 10.6768 19.5312 10.6768" stroke="white" stroke-width="1.5625" stroke-linecap="round" stroke-linejoin="round"/>
<path d="M5.98975 5.98926V2.86426M16.4064 5.98926V2.86426" stroke="white" stroke-width="1.5625" stroke-linejoin="round"/>
<path d="M5.98942 2.86458C6.56472 2.86458 7.03109 2.39821 7.03109 1.82292C7.03109 1.24762 6.56472 0.78125 5.98942 0.78125C5.41412 0.78125 4.94775 1.24762 4.94775 1.82292C4.94775 2.39821 5.41412 2.86458 5.98942 2.86458Z" stroke="white" stroke-width="1.5625" stroke-linejoin="round"/>
<path d="M16.4064 2.86458C16.9817 2.86458 17.4481 2.39821 17.4481 1.82292C17.4481 1.24762 16.9817 0.78125 16.4064 0.78125C15.8311 0.78125 15.3647 1.24762 15.3647 1.82292C15.3647 2.39821 15.8311 2.86458 16.4064 2.86458Z" stroke="white" stroke-width="1.5625" stroke-linejoin="round"/>
<path d="M12.7603 5.98926H9.63525C6.68942 5.98926 5.21546 5.98926 4.30088 6.93613C3.3863 7.88301 3.38525 9.40697 3.38525 12.4549C3.38525 15.5028 3.38525 17.0268 4.30088 17.9736C5.21546 18.9205 6.68942 18.9205 9.63525 18.9205H10.703C11.528 18.9205 11.8186 19.0903 12.3873 19.709C13.0155 20.3934 13.9884 21.307 14.8686 21.5195C16.1196 21.8215 16.2603 21.4038 15.9811 20.2111C15.9019 19.8715 15.703 19.3288 15.9123 19.0122C16.03 18.8351 16.2248 18.7913 16.6155 18.7038C17.2311 18.5663 17.7394 18.3413 18.0946 17.9736C19.0103 17.0257 19.0103 15.5028 19.0103 12.4549C19.0103 9.40697 19.0103 7.88301 18.0946 6.93613C17.18 5.98926 15.7061 5.98926 12.7603 5.98926Z" stroke="white" stroke-width="1.5625" stroke-linejoin="round"/>
<path d="M8.59375 14.3232C9.1875 14.9555 10.1333 15.3649 11.1979 15.3649C12.2625 15.3649 13.2083 14.9555 13.8021 14.3232" stroke="white" stroke-width="1.5625" stroke-linecap="round" stroke-linejoin="round"/>
<path d="M8.08213 10.1562H8.07275M14.3321 10.1562H14.3228" stroke="white" stroke-width="2.08333" stroke-linecap="round" stroke-linejoin="round"/>
</svg>
