<svg width="33" height="33" viewBox="0 0 33 33" fill="none" xmlns="http://www.w3.org/2000/svg">
<mask id="mask0_115_11273" style="mask-type:luminance" maskUnits="userSpaceOnUse" x="0" y="0" width="33" height="33">
<path d="M16.4584 31.8753C18.4833 31.8778 20.4888 31.4802 22.3595 30.7053C24.2303 29.9304 25.9295 28.7934 27.3595 27.3598C28.7932 25.9298 29.9301 24.2306 30.705 22.3598C31.48 20.489 31.8776 18.4836 31.8751 16.4587C31.8776 14.4338 31.48 12.4283 30.705 10.5575C29.9301 8.68678 28.7932 6.98757 27.3595 5.55755C25.9295 4.12392 24.2303 2.98699 22.3595 2.21206C20.4888 1.43714 18.4833 1.03951 16.4584 1.042C14.4335 1.03951 12.4281 1.43714 10.5573 2.21206C8.68654 2.98699 6.98733 4.12392 5.5573 5.55755C4.12368 6.98757 2.98674 8.68678 2.21182 10.5575C1.4369 12.4283 1.03926 14.4338 1.04176 16.4587C1.03926 18.4836 1.4369 20.489 2.21182 22.3598C2.98674 24.2306 4.12368 25.9298 5.5573 27.3598C6.98733 28.7934 8.68654 29.9304 10.5573 30.7053C12.4281 31.4802 14.4335 31.8778 16.4584 31.8753Z" fill="white" stroke="white" stroke-width="2.08333" stroke-linejoin="round"/>
<path fill-rule="evenodd" clip-rule="evenodd" d="M16.4583 6.4375C16.9694 6.4375 17.4596 6.64053 17.821 7.00193C18.1824 7.36333 18.3854 7.85349 18.3854 8.36458C18.3854 8.87568 18.1824 9.36584 17.821 9.72724C17.4596 10.0886 16.9694 10.2917 16.4583 10.2917C15.9472 10.2917 15.4571 10.0886 15.0957 9.72724C14.7343 9.36584 14.5312 8.87568 14.5312 8.36458C14.5312 7.85349 14.7343 7.36333 15.0957 7.00193C15.4571 6.64053 15.9472 6.4375 16.4583 6.4375Z" fill="black"/>
<path d="M16.8439 24.1667V13.375H15.3022M14.146 24.1667H19.5418" stroke="black" stroke-width="2.08333" stroke-linecap="round" stroke-linejoin="round"/>
</mask>
<g mask="url(#mask0_115_11273)">
<path d="M-2.0415 -2.04102H34.9585V34.959H-2.0415V-2.04102Z" fill="black"/>
</g>
</svg>
