<svg width="45" height="45" viewBox="0 0 45 45" fill="none" xmlns="http://www.w3.org/2000/svg">
<rect width="45" height="45" rx="10" fill="#F94AA5"/>
<path d="M33.4375 14.6875V13.125H31.0938V11.5625H29.5312V13.125H28.75C27.8883 13.125 27.1875 13.8266 27.1875 14.6875V16.25C27.1875 17.1117 27.8883 17.8125 28.75 17.8125H31.875V19.375H27.1875V20.9375H29.5312V22.5H31.0938V20.9375H31.875C32.7367 20.9375 33.4375 20.2367 33.4375 19.375V17.8125C33.4375 16.9516 32.7367 16.25 31.875 16.25H28.75V14.6875H33.4375ZM28.75 25.625V27.1875H30.7703L27.9688 29.9891L26.1781 28.1977C26.0318 28.0513 25.8335 27.969 25.6266 27.9688H25.625C25.4181 27.969 25.2197 28.0513 25.0734 28.1977L20.9375 32.3328L22.0422 33.4375L25.6258 29.8547L27.4164 31.6461C27.5629 31.7926 27.7616 31.8748 27.9688 31.8748C28.1759 31.8748 28.3746 31.7926 28.5211 31.6461L31.875 28.2922V30.3125H33.4375V25.625H28.75ZM13.125 33.4375H11.5625V29.5312C11.5625 26.5156 14.0156 24.0625 17.0312 24.0625H21.7188C23.2727 24.0625 24.7578 24.7266 25.7945 25.8852L24.6305 26.9273C24.2641 26.5176 23.8153 26.1898 23.3136 25.9654C22.8119 25.741 22.2684 25.625 21.7188 25.625H17.0312C14.8773 25.625 13.125 27.3773 13.125 29.5312V33.4375ZM19.375 22.5C20.8254 22.5 22.2164 21.9238 23.242 20.8982C24.2676 19.8727 24.8438 18.4817 24.8438 17.0312C24.8438 15.5808 24.2676 14.1898 23.242 13.1643C22.2164 12.1387 20.8254 11.5625 19.375 11.5625C17.9246 11.5625 16.5336 12.1387 15.508 13.1643C14.4824 14.1898 13.9062 15.5808 13.9062 17.0312C13.9062 18.4817 14.4824 19.8727 15.508 20.8982C16.5336 21.9238 17.9246 22.5 19.375 22.5ZM19.375 13.125C20.411 13.125 21.4046 13.5366 22.1371 14.2691C22.8697 15.0017 23.2812 15.9952 23.2812 17.0312C23.2812 18.0673 22.8697 19.0608 22.1371 19.7934C21.4046 20.5259 20.411 20.9375 19.375 20.9375C18.339 20.9375 17.3454 20.5259 16.6129 19.7934C15.8803 19.0608 15.4688 18.0673 15.4688 17.0312C15.4688 15.9952 15.8803 15.0017 16.6129 14.2691C17.3454 13.5366 18.339 13.125 19.375 13.125Z" fill="white"/>
</svg>
