<svg width="46" height="45" viewBox="0 0 46 45" fill="none" xmlns="http://www.w3.org/2000/svg">
<rect x="0.25" width="45" height="45" rx="10" fill="#CD4AF9"/>
<path d="M22.75 33.1723C28.5781 33.1723 33.4223 28.3384 33.4223 22.5C33.4223 16.6719 28.5674 11.8277 22.7393 11.8277C16.9013 11.8277 12.0781 16.6719 12.0781 22.5C12.0781 28.3384 16.9116 33.1723 22.75 33.1723ZM17.7379 25.8795C17.7379 25.5134 18.0312 25.2206 18.3763 25.2206C18.5857 25.2206 18.7531 25.2831 18.8996 25.4505L19.475 26.0264L20.2808 26.9469L20.2179 25.1156V20.0518C20.2179 17.6348 21.6933 16.0862 23.9741 16.0862C26.1817 16.0862 27.6884 17.6348 27.6884 19.8947C27.6884 22.1339 26.2344 23.6089 24.0473 23.6089C23.608 23.6089 23.2103 23.4942 22.9804 23.2741C22.9159 23.2098 22.865 23.1331 22.8308 23.0486C22.7966 22.9642 22.7797 22.8737 22.7812 22.7826C22.7812 22.4478 23.0429 22.1964 23.3987 22.1964C23.5973 22.1964 23.7647 22.2697 24.0893 22.2697C25.4076 22.2697 26.3286 21.3072 26.3388 19.8947C26.3491 18.4402 25.3969 17.4674 23.9741 17.4674C22.4571 17.4674 21.6094 18.4299 21.6094 20.1773V25.1054L21.5571 26.9469L22.3629 26.0156L22.9384 25.4398C23.0746 25.2835 23.242 25.2206 23.4616 25.2206C23.8067 25.2206 24.0893 25.5134 24.0893 25.8795C24.0893 26.0366 24.0161 26.204 23.8799 26.3607L21.6723 28.5581C21.421 28.7884 21.1804 28.9139 20.9188 28.9139C20.6781 28.9139 20.4272 28.7884 20.1656 28.5581L17.958 26.3714C17.8321 26.225 17.7379 26.0366 17.7379 25.8795Z" fill="white"/>
</svg>
