<svg width="46" height="45" viewBox="0 0 46 45" fill="none" xmlns="http://www.w3.org/2000/svg">
<rect x="0.75" width="45" height="45" rx="10" fill="#4AAAF9"/>
<path fill-rule="evenodd" clip-rule="evenodd" d="M23.25 11.5625C20.3492 11.5625 17.5672 12.7148 15.516 14.766C13.4648 16.8172 12.3125 19.5992 12.3125 22.5C12.3125 25.4008 13.4648 28.1828 15.516 30.234C17.5672 32.2852 20.3492 33.4375 23.25 33.4375C26.1508 33.4375 28.9328 32.2852 30.984 30.234C33.0352 28.1828 34.1875 25.4008 34.1875 22.5C34.1875 19.5992 33.0352 16.8172 30.984 14.766C28.9328 12.7148 26.1508 11.5625 23.25 11.5625ZM22.4688 17.0312V18.5938C21.1781 18.5938 20.125 19.6469 20.125 20.9375C20.125 22.2281 21.1781 23.2812 22.4688 23.2812H24.0312C24.4594 23.2812 24.8125 23.6344 24.8125 24.0625C24.8125 24.4906 24.4594 24.8438 24.0312 24.8438H20.125V26.4062H22.4688V27.9688H24.0312V26.4062C25.3219 26.4062 26.375 25.3531 26.375 24.0625C26.375 22.7719 25.3219 21.7188 24.0312 21.7188H22.4688C22.2619 21.7175 22.0639 21.6348 21.9177 21.4886C21.7714 21.3423 21.6887 21.1443 21.6875 20.9375C21.6875 20.5094 22.0406 20.1562 22.4688 20.1562H26.375V18.5938H24.0312V17.0312H22.4688Z" fill="white"/>
</svg>
