<svg width="46" height="45" viewBox="0 0 46 45" fill="none" xmlns="http://www.w3.org/2000/svg">
<rect x="0.5" width="45" height="45" rx="10" fill="#F97E4A"/>
<path d="M23.6101 12.6937C23.2195 12.303 22.6897 12.0834 22.1372 12.0833H14.6663C14.1138 12.0833 13.5839 12.3028 13.1932 12.6935C12.8025 13.0842 12.583 13.6141 12.583 14.1666V21.6375C12.5831 22.19 12.8027 22.7198 13.1934 23.1104L21.5268 31.4437C21.9174 31.8343 22.4472 32.0537 22.9997 32.0537C23.5521 32.0537 24.0819 31.8343 24.4726 31.4437L31.9434 23.9729C32.334 23.5822 32.5534 23.0524 32.5534 22.5C32.5534 21.9476 32.334 21.4177 31.9434 21.0271L23.6101 12.6937ZM17.7913 19.375C17.2387 19.3748 16.7087 19.1552 16.318 18.7643C15.9273 18.3734 15.7079 17.8433 15.708 17.2906C15.7081 16.7379 15.9278 16.208 16.3187 15.8172C16.7096 15.4265 17.2397 15.2071 17.7924 15.2073C18.3451 15.2074 18.875 15.4271 19.2657 15.818C19.6564 16.2089 19.8759 16.739 19.8757 17.2916C19.8756 17.8443 19.6559 18.3743 19.265 18.765C18.8741 19.1557 18.344 19.3751 17.7913 19.375Z" fill="white"/>
</svg>
