<svg width="46" height="45" viewBox="0 0 46 45" fill="none" xmlns="http://www.w3.org/2000/svg">
<rect x="0.333008" width="45" height="45" rx="10" fill="#4AAAF9"/>
<g clip-path="url(#clip0_215_4375)">
<path d="M24.5308 29.8924H32.7446V28.2497H24.5308V29.8924ZM19.6025 23.3214H32.7446V21.6786H19.6025V23.3214ZM27.8163 16.7503H32.7446V15.1075H27.8163V16.7503ZM34.3874 27.4283V30.7138C34.3874 30.9363 34.3061 31.1288 34.1435 31.2913C33.9809 31.4539 33.7884 31.5352 33.566 31.5352H12.2101C11.9876 31.5352 11.7951 31.4539 11.6325 31.2913C11.47 31.1288 11.3887 30.9363 11.3887 30.7138V27.4283C11.3887 27.2058 11.47 27.0133 11.6325 26.8507C11.7951 26.6882 11.9876 26.6069 12.2101 26.6069H33.566C33.7884 26.6069 33.9809 26.6882 34.1435 26.8507C34.3061 27.0133 34.3874 27.2058 34.3874 27.4283ZM34.3874 20.8572V24.1427C34.3874 24.3652 34.3061 24.5577 34.1435 24.7203C33.9809 24.8828 33.7884 24.9641 33.566 24.9641H12.2101C11.9876 24.9641 11.7951 24.8828 11.6325 24.7203C11.47 24.5577 11.3887 24.3652 11.3887 24.1427V20.8572C11.3887 20.6348 11.47 20.4422 11.6325 20.2797C11.7951 20.1171 11.9876 20.0358 12.2101 20.0358H33.566C33.7884 20.0358 33.9809 20.1171 34.1435 20.2797C34.3061 20.4422 34.3874 20.6348 34.3874 20.8572ZM34.3874 14.2862V17.5717C34.3874 17.7941 34.3061 17.9867 34.1435 18.1492C33.9809 18.3118 33.7884 18.3931 33.566 18.3931H12.2101C11.9876 18.3931 11.7951 18.3118 11.6325 18.1492C11.47 17.9867 11.3887 17.7941 11.3887 17.5717V14.2862C11.3887 14.0637 11.47 13.8712 11.6325 13.7086C11.7951 13.5461 11.9876 13.4648 12.2101 13.4648H33.566C33.7884 13.4648 33.9809 13.5461 34.1435 13.7086C34.3061 13.8712 34.3874 14.0637 34.3874 14.2862Z" fill="white"/>
</g>
<defs>
<clipPath id="clip0_215_4375">
<rect width="23" height="23" fill="white" transform="translate(11.333 11)"/>
</clipPath>
</defs>
</svg>
