<svg width="46" height="45" viewBox="0 0 46 45" fill="none" xmlns="http://www.w3.org/2000/svg">
<rect x="0.666992" width="45" height="45" rx="10" fill="#F97E4A"/>
<path d="M26.8135 27.7083H33.0635M33.0635 27.7083L30.4593 30.3125M33.0635 27.7083L30.4593 25.1041" stroke="white" stroke-width="2.08333" stroke-linecap="round" stroke-linejoin="round"/>
<path d="M33.0632 23.5416V15.2083C33.0632 14.7939 32.8985 14.3965 32.6055 14.1035C32.3125 13.8104 31.9151 13.6458 31.5007 13.6458H14.834C14.4196 13.6458 14.0222 13.8104 13.7291 14.1035C13.4361 14.3965 13.2715 14.7939 13.2715 15.2083V29.7916C13.2715 30.206 13.4361 30.6035 13.7291 30.8965C14.0222 31.1895 14.4196 31.3541 14.834 31.3541H25.4954" stroke="white" stroke-width="2.08333" stroke-linecap="round" stroke-linejoin="round"/>
<path d="M18.4798 17.8125L21.084 20.9375M21.084 20.9375L23.6882 17.8125M21.084 20.9375V27.1875M17.959 24.0625H24.209M17.959 20.9375H24.209" stroke="white" stroke-width="2.08333" stroke-linecap="round" stroke-linejoin="round"/>
</svg>
