<svg width="45" height="45" viewBox="0 0 45 45" fill="none" xmlns="http://www.w3.org/2000/svg">
<rect width="45" height="45" rx="10" fill="#F94AA5"/>
<path fill-rule="evenodd" clip-rule="evenodd" d="M15.6247 12.0833H29.3747C30.314 12.0833 31.2148 12.4565 31.879 13.1206C32.5432 13.7848 32.9163 14.6857 32.9163 15.625V29.375C32.9163 30.3143 32.5432 31.2151 31.879 31.8793C31.2148 32.5435 30.314 32.9166 29.3747 32.9166H15.6247C14.6854 32.9166 13.7845 32.5435 13.1203 31.8793C12.4561 31.2151 12.083 30.3143 12.083 29.375V15.625C12.083 14.6857 12.4561 13.7848 13.1203 13.1206C13.7845 12.4565 14.6854 12.0833 15.6247 12.0833ZM17.2913 15.2083C17.5676 15.2083 17.8326 15.3181 18.0279 15.5134C18.2233 15.7088 18.333 15.9737 18.333 16.25V24.5833C18.333 24.8596 18.2233 25.1245 18.0279 25.3199C17.8326 25.5152 17.5676 25.625 17.2913 25.625C17.0151 25.625 16.7501 25.5152 16.5548 25.3199C16.3594 25.1245 16.2497 24.8596 16.2497 24.5833V16.25C16.2497 15.9737 16.3594 15.7088 16.5548 15.5134C16.7501 15.3181 17.0151 15.2083 17.2913 15.2083ZM22.4997 15.2083C22.7759 15.2083 23.0409 15.3181 23.2362 15.5134C23.4316 15.7088 23.5413 15.9737 23.5413 16.25V22.5C23.5413 22.7762 23.4316 23.0412 23.2362 23.2365C23.0409 23.4319 22.7759 23.5416 22.4997 23.5416C22.2234 23.5416 21.9585 23.4319 21.7631 23.2365C21.5678 23.0412 21.458 22.7762 21.458 22.5V16.25C21.458 15.9737 21.5678 15.7088 21.7631 15.5134C21.9585 15.3181 22.2234 15.2083 22.4997 15.2083ZM28.7497 16.25C28.7497 15.9737 28.6399 15.7088 28.4446 15.5134C28.2492 15.3181 27.9843 15.2083 27.708 15.2083C27.4317 15.2083 27.1668 15.3181 26.9714 15.5134C26.7761 15.7088 26.6663 15.9737 26.6663 16.25V26.6666C26.6663 26.9429 26.7761 27.2079 26.9714 27.4032C27.1668 27.5986 27.4317 27.7083 27.708 27.7083C27.9843 27.7083 28.2492 27.5986 28.4446 27.4032C28.6399 27.2079 28.7497 26.9429 28.7497 26.6666V16.25Z" fill="white"/>
</svg>
