<svg width="48" height="49" viewBox="0 0 48 49" fill="none" xmlns="http://www.w3.org/2000/svg">
<rect y="0.5" width="48" height="48" rx="10" fill="#F94AA5"/>
<path d="M31.9167 33.875L25.3542 27.3125C24.8333 27.7292 24.2344 28.059 23.5573 28.3021C22.8802 28.5451 22.1597 28.6667 21.3958 28.6667C19.5035 28.6667 17.9021 28.0111 16.5917 26.7C15.2813 25.3889 14.6257 23.7875 14.625 21.8958C14.6243 20.0042 15.2799 18.4028 16.5917 17.0917C17.9035 15.7806 19.5049 15.125 21.3958 15.125C23.2868 15.125 24.8885 15.7806 26.201 17.0917C27.5135 18.4028 28.1688 20.0042 28.1667 21.8958C28.1667 22.6597 28.0451 23.3802 27.8021 24.0573C27.559 24.7344 27.2292 25.3333 26.8125 25.8542L33.375 32.4167L31.9167 33.875ZM21.3958 26.5833C22.6979 26.5833 23.8049 26.1278 24.7167 25.2167C25.6285 24.3056 26.084 23.1986 26.0833 21.8958C26.0826 20.5931 25.6271 19.4865 24.7167 18.576C23.8063 17.6656 22.6993 17.2097 21.3958 17.2083C20.0924 17.2069 18.9858 17.6628 18.076 18.576C17.1663 19.4892 16.7104 20.5958 16.7083 21.8958C16.7063 23.1958 17.1622 24.3028 18.076 25.2167C18.9899 26.1306 20.0965 26.5861 21.3958 26.5833Z" fill="white"/>
</svg>
