<svg width="48" height="49" viewBox="0 0 48 49" fill="none" xmlns="http://www.w3.org/2000/svg">
<rect y="0.5" width="48" height="48" rx="10" fill="#F97E4A"/>
<path fill-rule="evenodd" clip-rule="evenodd" d="M25.6522 14.083C26.1414 14.0831 26.6148 14.2553 26.9897 14.5695L27.1252 14.6934L31.7231 19.2913C32.0689 19.6372 32.2821 20.0937 32.3252 20.5809L32.3335 20.7643V32.833C32.3337 33.3586 32.1352 33.8648 31.7778 34.2502C31.4204 34.6356 30.9305 34.8717 30.4064 34.9111L30.2502 34.9163H24.0002V32.833H30.2502V22.4163H25.5627C25.1742 22.4163 24.7998 22.2716 24.5122 22.0105C24.2247 21.7493 24.0447 21.3905 24.0075 21.0038L24.0002 20.8538V16.1663H17.7502V24.4997H15.6668V16.1663C15.6667 15.6407 15.8652 15.1345 16.2226 14.7491C16.5799 14.3637 17.0698 14.1276 17.5939 14.0882L17.7502 14.083H25.6522ZM19.5283 27.0674L22.4752 30.0132C22.6704 30.2086 22.7801 30.4735 22.7801 30.7497C22.7801 31.0259 22.6704 31.2908 22.4752 31.4861L19.5283 34.432C19.4322 34.5315 19.3173 34.6108 19.1902 34.6654C19.0631 34.72 18.9264 34.7487 18.7881 34.7499C18.6498 34.7511 18.5126 34.7248 18.3846 34.6724C18.2566 34.62 18.1403 34.5427 18.0425 34.4449C17.9447 34.3471 17.8673 34.2308 17.8149 34.1028C17.7626 33.9747 17.7362 33.8376 17.7374 33.6993C17.7386 33.5609 17.7673 33.4243 17.8219 33.2972C17.8765 33.1701 17.9559 33.0551 18.0554 32.959L19.2231 31.7913H14.6252C14.3489 31.7913 14.0839 31.6816 13.8886 31.4862C13.6932 31.2909 13.5835 31.0259 13.5835 30.7497C13.5835 30.4734 13.6932 30.2085 13.8886 30.0131C14.0839 29.8178 14.3489 29.708 14.6252 29.708H19.2231L18.0554 28.5403C17.9586 28.4436 17.8818 28.3288 17.8294 28.2024C17.777 28.076 17.75 27.9405 17.75 27.8037C17.7499 27.5274 17.8595 27.2623 18.0549 27.0669C18.2502 26.8714 18.5151 26.7615 18.7915 26.7614C18.9283 26.7614 19.0638 26.7883 19.1902 26.8406C19.3166 26.8929 19.4315 26.9696 19.5283 27.0663V27.0674ZM26.0835 16.5976V20.333H29.8189L26.0835 16.5976Z" fill="white"/>
</svg>
