<svg width="25" height="25" viewBox="0 0 25 25" fill="none" xmlns="http://www.w3.org/2000/svg">
<path fill-rule="evenodd" clip-rule="evenodd" d="M12.5002 19.7923C13.4577 19.7923 14.4059 19.6037 15.2906 19.2373C16.1752 18.8708 16.9791 18.3337 17.6561 17.6566C18.3332 16.9795 18.8703 16.1757 19.2368 15.2911C19.6032 14.4064 19.7918 13.4582 19.7918 12.5007C19.7918 11.5431 19.6032 10.5949 19.2368 9.71025C18.8703 8.82558 18.3332 8.02176 17.6561 7.34466C16.9791 6.66757 16.1752 6.13047 15.2906 5.76403C14.4059 5.39759 13.4577 5.20898 12.5002 5.20898C10.5663 5.20898 8.71163 5.97721 7.34418 7.34466C5.97672 8.71212 5.2085 10.5668 5.2085 12.5007C5.2085 14.4345 5.97672 16.2892 7.34418 17.6566C8.71163 19.0241 10.5663 19.7923 12.5002 19.7923ZM10.5075 7.68815C11.1393 7.42668 11.8164 7.29218 12.5002 7.29232C12.6383 7.29232 12.7708 7.23744 12.8684 7.13977C12.9661 7.04209 13.021 6.90962 13.021 6.77148C13.021 6.63335 12.9661 6.50087 12.8684 6.4032C12.7708 6.30552 12.6383 6.25065 12.5002 6.25065C10.8426 6.25065 9.25285 6.90913 8.08075 8.08123C6.90864 9.25334 6.25016 10.843 6.25016 12.5007C6.25016 12.6388 6.30504 12.7713 6.40271 12.8689C6.50039 12.9666 6.63286 13.0215 6.771 13.0215C6.90913 13.0215 7.04161 12.9666 7.13928 12.8689C7.23696 12.7713 7.29183 12.6388 7.29183 12.5007C7.29174 11.4704 7.59721 10.4632 8.1696 9.6066C8.74199 8.74996 9.55558 8.08233 10.5075 7.68815Z" fill="black" fill-opacity="0.25"/>
<path d="M24 23.501L18 17.501" stroke="#787878" stroke-width="1.04167" stroke-linecap="round"/>
<path d="M11.4584 20.3128C16.3484 20.3128 20.3126 16.3487 20.3126 11.4587C20.3126 6.56864 16.3484 2.60449 11.4584 2.60449C6.56839 2.60449 2.60425 6.56864 2.60425 11.4587C2.60425 16.3487 6.56839 20.3128 11.4584 20.3128Z" stroke="#787878" stroke-width="1.04167"/>
</svg>
