<svg width="51" height="51" viewBox="0 0 51 51" fill="none" xmlns="http://www.w3.org/2000/svg">
<rect width="51" height="51" rx="25.5" fill="#6356FA"/>
<g clip-path="url(#clip0_115_11298)">
<path fill-rule="evenodd" clip-rule="evenodd" d="M34.6779 25.5012L21.5443 19.343L22.8979 24.4165L28.5658 24.4157C28.8531 24.4158 29.1287 24.53 29.3318 24.7333C29.535 24.9366 29.649 25.2122 29.6489 25.4996C29.6488 25.787 29.5346 26.0626 29.3313 26.2657C29.128 26.4688 28.8524 26.5829 28.565 26.5828L22.8964 26.5828L21.5451 31.657L34.6779 25.5012ZM36.6443 24.0296C37.8914 24.6133 37.8914 26.3875 36.6443 26.9712L21.4103 34.1129C20.1601 34.6981 18.795 33.5568 19.1505 32.2223L20.9437 25.5004L19.1505 18.7785C18.795 17.444 20.1601 16.3026 21.4103 16.8879L36.6443 24.0296Z" fill="white"/>
</g>
<defs>
<clipPath id="clip0_115_11298">
<rect width="26" height="26" fill="white" transform="translate(25.5 7.11523) rotate(45)"/>
</clipPath>
</defs>
</svg>
