<svg width="26" height="26" viewBox="0 0 26 26" fill="none" xmlns="http://www.w3.org/2000/svg">
<path d="M23.5625 13C23.5625 10.1987 22.4497 7.51204 20.4688 5.53118C18.488 3.55033 15.8013 2.4375 13 2.4375C10.1987 2.4375 7.51204 3.55033 5.53118 5.53118C3.55033 7.51204 2.4375 10.1987 2.4375 13C2.4375 15.8013 3.55033 18.488 5.53118 20.4688C7.51204 22.4497 10.1987 23.5625 13 23.5625C15.8013 23.5625 18.488 22.4497 20.4688 20.4688C22.4497 18.488 23.5625 15.8013 23.5625 13ZM0 13C0 9.55219 1.36964 6.24558 3.80761 3.80761C6.24558 1.36964 9.55219 0 13 0C16.4478 0 19.7544 1.36964 22.1924 3.80761C24.6304 6.24558 26 9.55219 26 13C26 16.4478 24.6304 19.7544 22.1924 22.1924C19.7544 24.6304 16.4478 26 13 26C9.55219 26 6.24558 24.6304 3.80761 22.1924C1.36964 19.7544 0 16.4478 0 13ZM9.00352 16.2195C9.76523 17.0117 11.0906 17.875 13 17.875C14.9094 17.875 16.2348 17.0117 16.9965 16.2195C17.4637 15.732 18.2355 15.7168 18.718 16.184C19.2004 16.6512 19.2207 17.423 18.7535 17.9055C17.6312 19.0734 15.7066 20.3125 13 20.3125C10.2934 20.3125 8.36875 19.0734 7.24648 17.9055C6.7793 17.418 6.79453 16.6461 7.28203 16.184C7.76953 15.7219 8.54141 15.732 9.00352 16.2195ZM7.3125 10.5625C7.3125 10.1315 7.48371 9.7182 7.78845 9.41345C8.0932 9.10871 8.50652 8.9375 8.9375 8.9375C9.36848 8.9375 9.7818 9.10871 10.0865 9.41345C10.3913 9.7182 10.5625 10.1315 10.5625 10.5625C10.5625 10.9935 10.3913 11.4068 10.0865 11.7115C9.7818 12.0163 9.36848 12.1875 8.9375 12.1875C8.50652 12.1875 8.0932 12.0163 7.78845 11.7115C7.48371 11.4068 7.3125 10.9935 7.3125 10.5625ZM17.0625 8.9375C17.4935 8.9375 17.9068 9.10871 18.2115 9.41345C18.5163 9.7182 18.6875 10.1315 18.6875 10.5625C18.6875 10.9935 18.5163 11.4068 18.2115 11.7115C17.9068 12.0163 17.4935 12.1875 17.0625 12.1875C16.6315 12.1875 16.2182 12.0163 15.9135 11.7115C15.6087 11.4068 15.4375 10.9935 15.4375 10.5625C15.4375 10.1315 15.6087 9.7182 15.9135 9.41345C16.2182 9.10871 16.6315 8.9375 17.0625 8.9375Z" fill="#B8B8B8"/>
</svg>
