<svg width="40" height="40" viewBox="0 0 40 40" fill="none" xmlns="http://www.w3.org/2000/svg">
<rect width="40" height="40" rx="10" fill="#F94AA5"/>
<path d="M22.0833 10.625V14.7917C22.0833 15.0679 22.193 15.3329 22.3883 15.5282C22.5837 15.7236 22.8487 15.8333 23.1249 15.8333H27.2916" stroke="white" stroke-width="1.66667" stroke-linecap="round" stroke-linejoin="round"/>
<path d="M12.7083 21.0417V12.7083C12.7083 12.1558 12.9277 11.6259 13.3184 11.2352C13.7091 10.8445 14.2391 10.625 14.7916 10.625H22.0833L27.2916 15.8333V27.2917C27.2916 27.8442 27.0721 28.3741 26.6814 28.7648C26.2907 29.1555 25.7608 29.375 25.2083 29.375H19.4791M9.58325 27.2917H16.8749M16.8749 27.2917L13.7499 24.1667M16.8749 27.2917L13.7499 30.4167" stroke="white" stroke-width="1.66667" stroke-linecap="round" stroke-linejoin="round"/>
</svg>
