<svg width="40" height="40" viewBox="0 0 40 40" fill="none" xmlns="http://www.w3.org/2000/svg">
<rect width="40" height="40" rx="10" fill="#4AAAF9"/>
<path fill-rule="evenodd" clip-rule="evenodd" d="M21.6522 9.5835C22.1413 9.58362 22.6148 9.75582 22.9897 10.07L23.1251 10.1939L27.723 14.7918C28.0688 15.1377 28.282 15.5942 28.3251 16.0814L28.3334 16.2647V20.0002H26.2501V17.9168H21.5626C21.1742 17.9168 20.7997 17.7721 20.5121 17.511C20.2246 17.2498 20.0447 16.891 20.0074 16.5043L20.0001 16.3543V11.6668H13.7501V28.3335H20.0001V30.4168H13.7501C13.2245 30.417 12.7182 30.2185 12.3328 29.8611C11.9474 29.5037 11.7114 29.0139 11.672 28.4897L11.6667 28.3335V11.6668C11.6666 11.1412 11.8651 10.635 12.2225 10.2496C12.5799 9.86419 13.0697 9.62812 13.5938 9.5887L13.7501 9.5835H21.6522ZM26.9865 22.5679L29.9324 25.5137C30.1277 25.709 30.2374 25.974 30.2374 26.2502C30.2374 26.5264 30.1277 26.7913 29.9324 26.9866L26.9865 29.9325C26.8904 30.0319 26.7755 30.1113 26.6484 30.1659C26.5213 30.2205 26.3846 30.2492 26.2463 30.2504C26.108 30.2516 25.9709 30.2253 25.8428 30.1729C25.7148 30.1205 25.5985 30.0432 25.5007 29.9454C25.4029 29.8476 25.3256 29.7313 25.2732 29.6032C25.2208 29.4752 25.1945 29.3381 25.1957 29.1997C25.1969 29.0614 25.2256 28.9247 25.2802 28.7977C25.3348 28.6706 25.4141 28.5556 25.5136 28.4595L26.6813 27.2918H22.0834C21.8071 27.2918 21.5422 27.1821 21.3468 26.9867C21.1515 26.7914 21.0417 26.5264 21.0417 26.2502C21.0417 25.9739 21.1515 25.7089 21.3468 25.5136C21.5422 25.3182 21.8071 25.2085 22.0834 25.2085H26.6813L25.5136 24.0408C25.3182 23.8455 25.2083 23.5805 25.2082 23.3042C25.2081 23.0279 25.3178 22.7628 25.5131 22.5674C25.7084 22.3719 25.9734 22.262 26.2497 22.2619C26.526 22.2618 26.7911 22.3715 26.9865 22.5668V22.5679ZM22.0834 12.0981V15.8335H25.8188L22.0834 12.0981Z" fill="white"/>
</svg>
