<svg width="46" height="46" viewBox="0 0 46 46" fill="none" xmlns="http://www.w3.org/2000/svg">
<rect x="0.5" y="0.5" width="45" height="45" rx="10" fill="#CD4AF9"/>
<path fill-rule="evenodd" clip-rule="evenodd" d="M18.0469 12.5833H27.9531C29.1604 12.5833 29.7635 12.5833 30.251 12.7531C30.7105 12.9164 31.1262 13.1832 31.466 13.5329C31.8057 13.8826 32.0605 14.3058 32.2104 14.7698C32.375 15.2719 32.375 15.8927 32.375 17.1354V31.7229C32.375 32.6166 31.349 33.0916 30.7 32.4979C30.5179 32.3297 30.2791 32.2362 30.0312 32.2362C29.7834 32.2362 29.5446 32.3297 29.3625 32.4979L28.8594 32.9583C28.5404 33.2533 28.1219 33.4171 27.6875 33.4171C27.2531 33.4171 26.8346 33.2533 26.5156 32.9583C26.1967 32.6634 25.7782 32.4995 25.3438 32.4995C24.9093 32.4995 24.4908 32.6634 24.1719 32.9583C23.8529 33.2533 23.4344 33.4171 23 33.4171C22.5656 33.4171 22.1471 33.2533 21.8281 32.9583C21.5092 32.6634 21.0907 32.4995 20.6562 32.4995C20.2218 32.4995 19.8033 32.6634 19.4844 32.9583C19.1654 33.2533 18.7469 33.4171 18.3125 33.4171C17.8781 33.4171 17.4596 33.2533 17.1406 32.9583L16.6375 32.4979C16.4554 32.3297 16.2166 32.2362 15.9688 32.2362C15.7209 32.2362 15.4821 32.3297 15.3 32.4979C14.651 33.0916 13.625 32.6166 13.625 31.7229V17.1354C13.625 15.8927 13.625 15.2708 13.7896 14.7708C14.1021 13.8198 14.826 13.0739 15.749 12.7531C16.2365 12.5833 16.8396 12.5833 18.0469 12.5833ZM26.1875 19.3541C26.2559 19.2775 26.3085 19.1882 26.3424 19.0913C26.3763 18.9943 26.3907 18.8916 26.3849 18.7891C26.3791 18.6866 26.3532 18.5862 26.3086 18.4937C26.264 18.4012 26.2016 18.3184 26.125 18.25C26.0484 18.1816 25.9591 18.1289 25.8621 18.0951C25.7652 18.0612 25.6625 18.0467 25.56 18.0525C25.4574 18.0584 25.3571 18.0843 25.2646 18.1289C25.172 18.1735 25.0892 18.2359 25.0208 18.3125L21.8844 21.8271L20.9781 20.8125C20.8396 20.6594 20.6462 20.5674 20.4401 20.5565C20.2339 20.5457 20.0319 20.6168 19.878 20.7544C19.7242 20.892 19.631 21.0849 19.6189 21.291C19.6069 21.497 19.6768 21.6995 19.8135 21.8541L21.301 23.5208C21.3743 23.6029 21.4641 23.6686 21.5646 23.7136C21.665 23.7585 21.7738 23.7818 21.8839 23.7818C21.9939 23.7818 22.1027 23.7585 22.2031 23.7136C22.3036 23.6686 22.3934 23.6029 22.4667 23.5208L26.1875 19.3541ZM18.3125 25.8646C18.1053 25.8646 17.9066 25.9469 17.7601 26.0934C17.6136 26.2399 17.5312 26.4386 17.5312 26.6458C17.5312 26.853 17.6136 27.0517 17.7601 27.1982C17.9066 27.3448 18.1053 27.4271 18.3125 27.4271H27.6875C27.8947 27.4271 28.0934 27.3448 28.2399 27.1982C28.3864 27.0517 28.4687 26.853 28.4687 26.6458C28.4687 26.4386 28.3864 26.2399 28.2399 26.0934C28.0934 25.9469 27.8947 25.8646 27.6875 25.8646H18.3125Z" fill="white"/>
</svg>
