<svg width="46" height="46" viewBox="0 0 46 46" fill="none" xmlns="http://www.w3.org/2000/svg">
<rect x="0.5" y="0.5" width="45" height="45" rx="10" fill="#F94AA5"/>
<g clip-path="url(#clip0_69_780)">
<path d="M23 10.5C23.7367 10.5 24.4432 10.7927 24.9642 11.3136C25.4851 11.8345 25.7778 12.5411 25.7778 13.2778C25.7778 14.0145 25.4851 14.721 24.9642 15.242C24.4432 15.7629 23.7367 16.0556 23 16.0556C22.2633 16.0556 21.5567 15.7629 21.0358 15.242C20.5149 14.721 20.2222 14.0145 20.2222 13.2778C20.2222 12.5411 20.5149 11.8345 21.0358 11.3136C21.5567 10.7927 22.2633 10.5 23 10.5ZM27.1667 24.0417C27.1667 25.1267 26.6154 26.0816 25.7778 26.6415V28.5556H20.2222V26.6415C19.3845 26.0816 18.8333 25.1267 18.8333 24.0417V22.3056C18.8333 20.0052 20.6997 18.1389 23 18.1389C25.3003 18.1389 27.1667 20.0052 27.1667 22.3056V24.0417ZM27.8611 28.5556V27.3707C28.7248 26.3941 29.25 25.105 29.25 23.6944V22.3056C29.25 21.1467 28.9332 20.066 28.3863 19.1328C28.8681 18.9375 29.3932 18.8333 29.9444 18.8333C32.2448 18.8333 34.1111 20.6997 34.1111 23V24.3889C34.1111 25.4175 33.5512 26.316 32.7222 26.7934V28.5556H27.8611ZM13.2778 26.7934C12.4488 26.316 11.8889 25.4175 11.8889 24.3889V23C11.8889 20.6997 13.7552 18.8333 16.0556 18.8333C16.6068 18.8333 17.1319 18.9418 17.6137 19.1328C17.0668 20.0616 16.75 21.1467 16.75 22.3056V23.6944C16.75 25.105 17.2752 26.3898 18.1389 27.3707V28.5556H13.2778V26.7934ZM16.0556 11.8889C16.3747 11.8889 16.6908 11.9518 16.9857 12.0739C17.2806 12.1961 17.5485 12.3751 17.7742 12.6008C17.9999 12.8265 18.1789 13.0944 18.3011 13.3893C18.4232 13.6842 18.4861 14.0003 18.4861 14.3194C18.4861 14.6386 18.4232 14.9547 18.3011 15.2496C18.1789 15.5445 17.9999 15.8124 17.7742 16.0381C17.5485 16.2638 17.2806 16.4428 16.9857 16.565C16.6908 16.6871 16.3747 16.75 16.0556 16.75C15.7364 16.75 15.4203 16.6871 15.1254 16.565C14.8305 16.4428 14.5626 16.2638 14.3369 16.0381C14.1112 15.8124 13.9322 15.5445 13.81 15.2496C13.6879 14.9547 13.625 14.6386 13.625 14.3194C13.625 14.0003 13.6879 13.6842 13.81 13.3893C13.9322 13.0944 14.1112 12.8265 14.3369 12.6008C14.5626 12.3751 14.8305 12.1961 15.1254 12.0739C15.4203 11.9518 15.7364 11.8889 16.0556 11.8889ZM29.9444 11.8889C30.2636 11.8889 30.5797 11.9518 30.8746 12.0739C31.1695 12.1961 31.4374 12.3751 31.6631 12.6008C31.8888 12.8265 32.0678 13.0944 32.19 13.3893C32.3121 13.6842 32.375 14.0003 32.375 14.3194C32.375 14.6386 32.3121 14.9547 32.19 15.2496C32.0678 15.5445 31.8888 15.8124 31.6631 16.0381C31.4374 16.2638 31.1695 16.4428 30.8746 16.565C30.5797 16.6871 30.2636 16.75 29.9444 16.75C29.6253 16.75 29.3092 16.6871 29.0143 16.565C28.7194 16.4428 28.4515 16.2638 28.2258 16.0381C28.0001 15.8124 27.8211 15.5445 27.6989 15.2496C27.5768 14.9547 27.5139 14.6386 27.5139 14.3194C27.5139 14.0003 27.5768 13.6842 27.6989 13.3893C27.8211 13.0944 28.0001 12.8265 28.2258 12.6008C28.4515 12.3751 28.7194 12.1961 29.0143 12.0739C29.3092 11.9518 29.6253 11.8889 29.9444 11.8889ZM11.5417 30.6389H34.4583C35.0356 30.6389 35.5 31.1033 35.5 31.6806C35.5 32.2578 35.0356 32.7222 34.4583 32.7222H11.5417C10.9644 32.7222 10.5 32.2578 10.5 31.6806C10.5 31.1033 10.9644 30.6389 11.5417 30.6389Z" fill="white"/>
</g>
<defs>
<clipPath id="clip0_69_780">
<rect width="25" height="25" fill="white" transform="translate(10.5 10.5)"/>
</clipPath>
</defs>
</svg>
