<svg width="46" height="46" viewBox="0 0 46 46" fill="none" xmlns="http://www.w3.org/2000/svg">
<rect x="0.5" y="0.5" width="45" height="45" rx="10" fill="#F97F4A"/>
<g clip-path="url(#clip0_69_792)">
<path d="M19 22.1719H27.2188V24.125H19V22.1719ZM19 25.8594H27.2188V27.8125H19V25.8594ZM19 18.4219H27.2188V20.375H19V18.4219Z" fill="white"/>
<path d="M28.2188 12.0625L25.5625 10.9375L23.125 12.0625L20.5156 10.9375L18.0625 12.0625L14.3438 10.5V35.5L18.0625 33.9375L20.5156 35.0156L23.125 33.9375L25.5625 35.0156L28.2188 33.9375L31.6562 35.5V10.5L28.2188 12.0625ZM29.6875 32.5469L28.25 31.9062L25.6094 32.9844L23.1563 31.8594L20.5312 32.9375L18.1094 31.8594L16.3125 32.5938V13.4062L18.1094 14.1406L20.5312 13.0625L23.1563 14.1406L25.6094 13.0625L28.25 14.1406L29.6875 13.5V32.5469Z" fill="white"/>
</g>
<defs>
<clipPath id="clip0_69_792">
<rect width="25" height="25" fill="white" transform="translate(10.5 10.5)"/>
</clipPath>
</defs>
</svg>
