<svg width="46" height="46" viewBox="0 0 46 46" fill="none" xmlns="http://www.w3.org/2000/svg">
<rect x="0.5" y="0.5" width="45" height="45" rx="10" fill="#4AAAF9"/>
<g clip-path="url(#clip0_69_786)">
<path d="M13 31.75H33V33H13V31.75ZM13 13V20.5C13.0062 21.415 13.5013 22.2125 14.2387 22.6438L14.25 30.5H25.5V24.25H29.25V30.5H31.75V22.65C32.4988 22.2125 32.9937 21.415 33 20.5012V13H13ZM18 15.5H20.5V20.5C20.5 20.8315 20.3683 21.1495 20.1339 21.3839C19.8995 21.6183 19.5815 21.75 19.25 21.75C18.9185 21.75 18.6005 21.6183 18.3661 21.3839C18.1317 21.1495 18 20.8315 18 20.5V15.5ZM15.5 21.75C15.1685 21.75 14.8505 21.6183 14.6161 21.3839C14.3817 21.1495 14.25 20.8315 14.25 20.5V15.5H16.75V20.5C16.75 20.8315 16.6183 21.1495 16.3839 21.3839C16.1495 21.6183 15.8315 21.75 15.5 21.75ZM23 28H16.75V24.25H23V28ZM24.25 20.5C24.25 20.8315 24.1183 21.1495 23.8839 21.3839C23.6495 21.6183 23.3315 21.75 23 21.75C22.6685 21.75 22.3505 21.6183 22.1161 21.3839C21.8817 21.1495 21.75 20.8315 21.75 20.5V15.5H24.25V20.5ZM28 20.5C28 20.8315 27.8683 21.1495 27.6339 21.3839C27.3995 21.6183 27.0815 21.75 26.75 21.75C26.4185 21.75 26.1005 21.6183 25.8661 21.3839C25.6317 21.1495 25.5 20.8315 25.5 20.5V15.5H28V20.5ZM31.75 20.5C31.75 20.8315 31.6183 21.1495 31.3839 21.3839C31.1495 21.6183 30.8315 21.75 30.5 21.75C30.1685 21.75 29.8505 21.6183 29.6161 21.3839C29.3817 21.1495 29.25 20.8315 29.25 20.5V15.5H31.75V20.5Z" fill="white"/>
</g>
<defs>
<clipPath id="clip0_69_786">
<rect width="20" height="20" fill="white" transform="translate(13 13)"/>
</clipPath>
</defs>
</svg>
