<svg width="21" height="18" viewBox="0 0 21 18" fill="none" xmlns="http://www.w3.org/2000/svg">
<path d="M11.4583 10.4167C12.5634 10.4167 13.6232 10.8557 14.4046 11.6371C15.186 12.4185 15.625 13.4783 15.625 14.5833V16.1458C15.625 16.5602 15.4604 16.9577 15.1674 17.2507C14.8743 17.5437 14.4769 17.7083 14.0625 17.7083H1.5625C1.1481 17.7083 0.750671 17.5437 0.457646 17.2507C0.16462 16.9577 0 16.5602 0 16.1458V14.5833C0 13.4783 0.438987 12.4185 1.22039 11.6371C2.00179 10.8557 3.0616 10.4167 4.16667 10.4167H11.4583ZM17.7083 10.4167C18.5371 10.4167 19.332 10.7459 19.918 11.332C20.5041 11.918 20.8333 12.7129 20.8333 13.5417V15.1042C20.8333 15.5186 20.6687 15.916 20.3757 16.209C20.0827 16.502 19.6852 16.6667 19.2708 16.6667H17.7083V14.5833C17.7083 13.7748 17.5201 12.9773 17.1585 12.2541C16.7969 11.5309 16.2719 10.9018 15.625 10.4167H17.7083ZM7.8125 0C9.0557 0 10.248 0.49386 11.1271 1.37294C12.0061 2.25201 12.5 3.4443 12.5 4.6875C12.5 5.9307 12.0061 7.12299 11.1271 8.00206C10.248 8.88114 9.0557 9.375 7.8125 9.375C6.5693 9.375 5.37701 8.88114 4.49794 8.00206C3.61886 7.12299 3.125 5.9307 3.125 4.6875C3.125 3.4443 3.61886 2.25201 4.49794 1.37294C5.37701 0.49386 6.5693 0 7.8125 0ZM16.6667 3.125C17.4955 3.125 18.2903 3.45424 18.8764 4.04029C19.4624 4.62634 19.7917 5.4212 19.7917 6.25C19.7917 7.0788 19.4624 7.87366 18.8764 8.45971C18.2903 9.04576 17.4955 9.375 16.6667 9.375C15.8379 9.375 15.043 9.04576 14.457 8.45971C13.8709 7.87366 13.5417 7.0788 13.5417 6.25C13.5417 5.4212 13.8709 4.62634 14.457 4.04029C15.043 3.45424 15.8379 3.125 16.6667 3.125Z" fill="#555555"/>
</svg>
