<svg width="20" height="18" viewBox="0 0 20 18" fill="none" xmlns="http://www.w3.org/2000/svg">
<path d="M18.4937 5.87813C18.0106 4.73453 17.3102 3.69554 16.4312 2.81875C15.5545 1.93984 14.5155 1.2394 13.3719 0.75625C12.1838 0.253516 10.9248 0 9.625 0C8.3252 0 7.06621 0.253516 5.87813 0.75625C4.73453 1.2394 3.69554 1.93984 2.81875 2.81875C1.93984 3.69554 1.2394 4.73453 0.75625 5.87813C0.253516 7.06621 0 8.3252 0 9.625C0 12.476 1.25254 15.1615 3.43535 16.9963L3.47188 17.0264C3.59648 17.1295 3.75332 17.1875 3.91445 17.1875H15.3377C15.4988 17.1875 15.6557 17.1295 15.7803 17.0264L15.8168 16.9963C17.9975 15.1615 19.25 12.476 19.25 9.625C19.25 8.3252 18.9943 7.06621 18.4937 5.87813ZM14.9832 15.5547H4.2668C3.43663 14.8062 2.77313 13.8914 2.31936 12.8699C1.86559 11.8483 1.63168 10.7428 1.63281 9.625C1.63281 7.48945 2.46426 5.48281 3.97461 3.97461C5.48496 2.46426 7.4916 1.63281 9.625 1.63281C11.7605 1.63281 13.7672 2.46426 15.2754 3.97461C16.7857 5.48496 17.6172 7.4916 17.6172 9.625C17.6172 11.8937 16.6611 14.04 14.9832 15.5547ZM12.0205 6.64941C11.9882 6.61743 11.9446 6.59948 11.8991 6.59948C11.8537 6.59948 11.81 6.61743 11.7777 6.64941L9.9623 8.46484C9.56055 8.35742 9.11582 8.46055 8.8 8.77637C8.68814 8.88802 8.59939 9.02063 8.53884 9.16662C8.47829 9.31261 8.44712 9.4691 8.44712 9.62715C8.44712 9.78519 8.47829 9.94169 8.53884 10.0877C8.59939 10.2337 8.68814 10.3663 8.8 10.4779C8.91165 10.5898 9.04426 10.6785 9.19025 10.7391C9.33624 10.7996 9.49273 10.8308 9.65078 10.8308C9.80883 10.8308 9.96532 10.7996 10.1113 10.7391C10.2573 10.6785 10.3899 10.5898 10.5016 10.4779C10.6512 10.3288 10.7588 10.1427 10.8135 9.93863C10.8682 9.73455 10.8681 9.51964 10.8131 9.31562L12.6285 7.5002C12.6951 7.43359 12.6951 7.32402 12.6285 7.25742L12.0205 6.64941ZM9.15234 4.46875H10.0977C10.1922 4.46875 10.2695 4.39141 10.2695 4.29688V2.57812C10.2695 2.48359 10.1922 2.40625 10.0977 2.40625H9.15234C9.05781 2.40625 8.98047 2.48359 8.98047 2.57812V4.29688C8.98047 4.39141 9.05781 4.46875 9.15234 4.46875ZM14.7383 9.15234V10.0977C14.7383 10.1922 14.8156 10.2695 14.9102 10.2695H16.6289C16.7234 10.2695 16.8008 10.1922 16.8008 10.0977V9.15234C16.8008 9.05781 16.7234 8.98047 16.6289 8.98047H14.9102C14.8156 8.98047 14.7383 9.05781 14.7383 9.15234ZM15.0111 4.91562L14.343 4.24746C14.3107 4.21547 14.267 4.19753 14.2216 4.19753C14.1761 4.19753 14.1325 4.21547 14.1002 4.24746L12.8842 5.46348C12.8522 5.49578 12.8342 5.5394 12.8342 5.58486C12.8342 5.63032 12.8522 5.67395 12.8842 5.70625L13.5523 6.37441C13.6189 6.44102 13.7285 6.44102 13.7951 6.37441L15.0111 5.1584C15.0777 5.0918 15.0777 4.98223 15.0111 4.91562ZM5.1584 4.24746C5.1261 4.21547 5.08247 4.19753 5.03701 4.19753C4.99155 4.19753 4.94793 4.21547 4.91562 4.24746L4.24746 4.91562C4.21547 4.94793 4.19753 4.99155 4.19753 5.03701C4.19753 5.08247 4.21547 5.1261 4.24746 5.1584L5.46348 6.37441C5.53008 6.44102 5.63965 6.44102 5.70625 6.37441L6.37441 5.70625C6.44102 5.63965 6.44102 5.53008 6.37441 5.46348L5.1584 4.24746ZM4.25391 8.98047H2.53516C2.44062 8.98047 2.36328 9.05781 2.36328 9.15234V10.0977C2.36328 10.1922 2.44062 10.2695 2.53516 10.2695H4.25391C4.34844 10.2695 4.42578 10.1922 4.42578 10.0977V9.15234C4.42578 9.05781 4.34844 8.98047 4.25391 8.98047Z" fill="black"/>
</svg>
