<svg width="22" height="22" viewBox="0 0 22 22" fill="none" xmlns="http://www.w3.org/2000/svg">
<path d="M11.8753 20.2078C11.5635 19.8864 11.2893 19.5305 11.0581 19.1471C10.5427 19.2151 9.99951 19.2495 9.42855 19.25C5.41277 19.25 2.74998 17.5913 2.74998 15.4903V14.9286L2.75548 14.8146C2.78379 14.5231 2.91961 14.2526 3.13647 14.0558C3.35333 13.859 3.6357 13.75 3.92855 13.75H10.7046C10.8876 13.3318 11.1185 12.9363 11.3928 12.5714H3.92855C3.3034 12.5714 2.70385 12.8198 2.2618 13.2618C1.81975 13.7039 1.57141 14.3034 1.57141 14.9286V15.4903C1.57141 18.4116 4.87927 20.4286 9.42855 20.4286C10.2492 20.4303 11.0682 20.3564 11.8753 20.2078ZM14.1428 6.2857C14.1428 5.03539 13.6462 3.83629 12.7621 2.95219C11.878 2.06809 10.6789 1.57141 9.42855 1.57141C8.17825 1.57141 6.97915 2.06809 6.09505 2.95219C5.21095 3.83629 4.71427 5.03539 4.71427 6.2857C4.71427 7.536 5.21095 8.7351 6.09505 9.6192C6.97915 10.5033 8.17825 11 9.42855 11C10.6789 11 11.878 10.5033 12.7621 9.6192C13.6462 8.7351 14.1428 7.536 14.1428 6.2857ZM5.89284 6.2857C5.89284 5.34797 6.26535 4.44864 6.92843 3.78557C7.5915 3.12249 8.49082 2.74998 9.42855 2.74998C10.3663 2.74998 11.2656 3.12249 11.9287 3.78557C12.5918 4.44864 12.9643 5.34797 12.9643 6.2857C12.9643 7.22343 12.5918 8.12275 11.9287 8.78582C11.2656 9.4489 10.3663 9.82141 9.42855 9.82141C8.49082 9.82141 7.5915 9.4489 6.92843 8.78582C6.26535 8.12275 5.89284 7.22343 5.89284 6.2857ZM16.1071 21.2143C17.4616 21.2143 18.7606 20.6762 19.7184 19.7184C20.6762 18.7606 21.2143 17.4616 21.2143 16.1071C21.2143 14.7526 20.6762 13.4536 19.7184 12.4958C18.7606 11.5381 17.4616 11 16.1071 11C14.7526 11 13.4536 11.5381 12.4958 12.4958C11.5381 13.4536 11 14.7526 11 16.1071C11 17.4616 11.5381 18.7606 12.4958 19.7184C13.4536 20.6762 14.7526 21.2143 16.1071 21.2143ZM16.1071 12.5714C16.2113 12.5714 16.3112 12.6128 16.3849 12.6865C16.4586 12.7602 16.5 12.8601 16.5 12.9643V15.7143H19.25C19.3542 15.7143 19.4541 15.7557 19.5278 15.8293C19.6014 15.903 19.6428 16.0029 19.6428 16.1071C19.6428 16.2113 19.6014 16.3112 19.5278 16.3849C19.4541 16.4586 19.3542 16.5 19.25 16.5H16.5V19.25C16.5 19.3542 16.4586 19.4541 16.3849 19.5278C16.3112 19.6014 16.2113 19.6428 16.1071 19.6428C16.0029 19.6428 15.903 19.6014 15.8293 19.5278C15.7557 19.4541 15.7143 19.3542 15.7143 19.25V16.5H12.9643C12.8601 16.5 12.7602 16.4586 12.6865 16.3849C12.6128 16.3112 12.5714 16.2113 12.5714 16.1071C12.5714 16.0029 12.6128 15.903 12.6865 15.8293C12.7602 15.7557 12.8601 15.7143 12.9643 15.7143H15.7143V12.9643C15.7143 12.8601 15.7557 12.7602 15.8293 12.6865C15.903 12.6128 16.0029 12.5714 16.1071 12.5714Z" fill="black"/>
</svg>
