<svg width="12" height="12" viewBox="0 0 12 12" fill="none" xmlns="http://www.w3.org/2000/svg">
<path d="M7.98251 1.53313C7.98251 2.17188 7.0925 2.69125 5.99688 2.69125C4.90188 2.69125 4.01188 2.17188 4.01188 1.53313C4.01188 0.894375 4.90563 0.375 5.99688 0.375C7.08938 0.375 7.98251 0.894375 7.98251 1.53313ZM7.98251 10.4669C7.98251 11.1056 7.0925 11.625 5.99688 11.625C4.90188 11.625 4.01188 11.1056 4.01188 10.4669C4.01188 9.82812 4.90563 9.30875 5.99688 9.30875C7.08938 9.30875 7.98251 9.82812 7.98251 10.4669ZM3.13501 4.395C3.69751 3.42625 3.70063 2.37625 3.14813 2.05938C2.59188 1.73813 1.69188 2.2675 1.12938 3.23688C0.56688 4.20688 0.56688 5.25563 1.11688 5.57313C1.67313 5.89063 2.57251 5.36438 3.13501 4.395ZM10.8719 6.42375C11.4281 6.73813 11.4244 7.76687 10.8656 8.72C10.3031 9.6725 9.39938 10.1887 8.84688 9.87437C8.28751 9.56 8.29063 8.53062 8.85001 7.57812C9.41251 6.62562 10.3156 6.10938 10.8719 6.42375ZM3.15188 9.88125C3.70751 9.56687 3.70438 8.5375 3.14188 7.585C2.58251 6.63188 1.67938 6.11625 1.12313 6.43C0.56438 6.7475 0.56688 7.77375 1.12938 8.72625C1.68938 9.67937 2.59188 10.1988 3.14813 9.88437L3.15188 9.88125ZM10.8706 3.24062C11.4331 4.20937 11.4331 5.25563 10.8813 5.57313C10.3288 5.89438 9.425 5.36812 8.8625 4.395C8.30626 3.42625 8.3 2.38 8.8525 2.0625C9.40875 1.74125 10.3088 2.2675 10.8713 3.24062" fill="#4A4A4A"/>
</svg>
