<svg width="31" height="31" viewBox="0 0 31 31" fill="none" xmlns="http://www.w3.org/2000/svg">
<path d="M18.9712 18.0475L22.2837 13.1475C22.6112 12.665 21.99 12.1413 21.515 12.4863L17.9425 15.005C17.8229 15.0884 17.6807 15.1331 17.535 15.1331C17.3893 15.1331 17.247 15.0884 17.1275 15.005L14.4825 13.1588C13.6912 12.6125 12.56 12.8125 12.0287 13.5775L8.71623 18.4775C8.38873 18.96 9.00999 19.485 9.48498 19.1388L13.0575 16.62C13.177 16.5367 13.3193 16.492 13.465 16.492C13.6107 16.492 13.7529 16.5367 13.8725 16.62L16.5175 18.435C17.3087 19.0125 18.44 18.8125 18.9712 18.0475Z" fill="#6558EC"/>
<path d="M18.9346 5.25195C16.7593 4.52322 14.4088 4.50484 12.2227 5.2002C10.0365 5.89558 8.12798 7.26859 6.77344 9.12012C5.41915 10.9714 4.68855 13.2053 4.6875 15.499C4.68588 17.0207 5.00669 18.526 5.62793 19.915C6.24909 21.3039 7.15693 22.5455 8.29199 23.5586C8.33794 23.5997 8.37428 23.6507 8.39941 23.707C8.42447 23.7633 8.43758 23.8242 8.4375 23.8857V26.7676L9.0957 26.5479L11.6328 25.7031C11.725 25.6724 11.8254 25.6729 11.917 25.7051C14.0815 26.4653 16.4319 26.5181 18.6279 25.8545C20.8237 25.1909 22.7516 23.846 24.1328 22.0146C25.5141 20.183 26.2773 17.9589 26.3115 15.665C26.3457 13.3712 25.6493 11.1259 24.3232 9.25391C22.9972 7.38191 21.1098 5.98069 18.9346 5.25195ZM7.5625 24.0811L7.4082 23.9336C6.26977 22.8442 5.36412 21.5353 4.74609 20.0859C4.1281 18.6365 3.81041 17.0766 3.8125 15.501V15.5C3.8125 12.4003 5.04352 9.42718 7.23535 7.23535C9.42718 5.04352 12.4003 3.8125 15.5 3.8125C21.9551 3.8125 27.1875 9.04489 27.1875 15.5C27.1875 21.9551 21.9551 27.1875 15.5 27.1875H15.499C14.2856 27.1894 13.079 27.0011 11.9238 26.6299L11.7686 26.5801L11.6133 26.6318L8.1377 27.791C8.0721 27.8128 8.00192 27.8181 7.93359 27.8076C7.86522 27.7971 7.80025 27.7709 7.74414 27.7305C7.68791 27.6899 7.64192 27.636 7.61035 27.5742C7.57893 27.5126 7.56246 27.4442 7.5625 27.375V24.0811Z" stroke="#6558EC"/>
</svg>
