<svg width="18" height="18" viewBox="0 0 18 18" fill="none" xmlns="http://www.w3.org/2000/svg">
<path d="M13.5489 7.07243C13.6128 7.13628 13.6635 7.2121 13.6981 7.29556C13.7327 7.37902 13.7505 7.46849 13.7505 7.55883C13.7505 7.64918 13.7327 7.73864 13.6981 7.82211C13.6635 7.90557 13.6128 7.98139 13.5489 8.04524L10.7989 10.7952C10.7351 10.8592 10.6592 10.9099 10.5758 10.9445C10.4923 10.9791 10.4028 10.9969 10.3125 10.9969C10.2222 10.9969 10.1327 10.9791 10.0492 10.9445C9.96577 10.9099 9.88994 10.8592 9.82609 10.7952L7.5625 8.53079L5.29891 10.7952C5.1699 10.9242 4.99494 10.9967 4.8125 10.9967C4.63006 10.9967 4.4551 10.9242 4.32609 10.7952C4.19709 10.6662 4.12462 10.4913 4.12462 10.3088C4.12462 10.1264 4.19709 9.95143 4.32609 9.82243L7.07609 7.07243C7.13994 7.00851 7.21577 6.9578 7.29923 6.9232C7.38269 6.8886 7.47215 6.87079 7.5625 6.87079C7.65285 6.87079 7.74231 6.8886 7.82577 6.9232C7.90923 6.9578 7.98506 7.00851 8.04891 7.07243L10.3125 9.33688L12.5761 7.07243C12.6399 7.00851 12.7158 6.9578 12.7992 6.9232C12.8827 6.8886 12.9722 6.87079 13.0625 6.87079C13.1528 6.87079 13.2423 6.8886 13.3258 6.9232C13.4092 6.9578 13.4851 7.00851 13.5489 7.07243ZM17.875 8.93383C17.8753 10.4769 17.4762 11.9937 16.7164 13.3367C15.9566 14.6797 14.862 15.8031 13.5392 16.5976C12.2164 17.3921 10.7105 17.8305 9.16793 17.8703C7.62541 17.9101 6.09886 17.5498 4.73687 16.8246L1.8107 17.8C1.56843 17.8808 1.30845 17.8925 1.05989 17.8339C0.811331 17.7752 0.58402 17.6485 0.403434 17.4679C0.222849 17.2873 0.096125 17.06 0.0374666 16.8114C-0.0211918 16.5629 -0.00946659 16.3029 0.0713279 16.0606L1.04672 13.1345C0.40919 11.9358 0.0531069 10.6077 0.00549771 9.25092C-0.0421114 7.89412 0.220005 6.54432 0.77195 5.30395C1.3239 4.06358 2.15116 2.96526 3.19096 2.09234C4.23076 1.21943 5.45575 0.594869 6.77296 0.26607C8.09018 -0.0627279 9.46498 -0.087123 10.793 0.194737C12.1211 0.476596 13.3675 1.0573 14.4376 1.89278C15.5077 2.72825 16.3734 3.79654 16.969 5.01654C17.5646 6.23654 17.8744 7.57621 17.875 8.93383ZM16.5 8.93383C16.4997 7.77378 16.2325 6.62936 15.7191 5.5891C15.2057 4.54884 14.4599 3.64063 13.5393 2.93474C12.6187 2.22884 11.5481 1.74419 10.4103 1.51828C9.27244 1.29236 8.09788 1.33123 6.97747 1.63189C5.85706 1.93255 4.82083 2.48694 3.94896 3.25216C3.07709 4.01737 2.39294 4.97291 1.94946 6.04484C1.50597 7.11677 1.31503 8.27636 1.39141 9.43389C1.46779 10.5914 1.80943 11.7159 2.38992 12.7202C2.43864 12.8046 2.46889 12.8983 2.47867 12.9952C2.48845 13.0921 2.47753 13.1899 2.44664 13.2823L1.375 16.4963L4.58906 15.4238C4.68148 15.3931 4.77937 15.3823 4.87627 15.3922C4.97316 15.4021 5.06684 15.4325 5.15109 15.4814C6.30074 16.1464 7.60524 16.4968 8.93334 16.4976C10.2614 16.4983 11.5663 16.1493 12.7167 15.4856C13.8671 14.8219 14.8224 13.8669 15.4865 12.7168C16.1507 11.5667 16.5002 10.2619 16.5 8.93383Z" fill="black"/>
</svg>
