<svg width="22" height="22" viewBox="0 0 22 22" fill="none" xmlns="http://www.w3.org/2000/svg">
<path d="M8.58642 2.0625H10.5417C10.724 2.0625 10.8989 2.13493 11.0278 2.26386C11.1567 2.3928 11.2292 2.56766 11.2292 2.75C11.2292 2.93234 11.1567 3.1072 11.0278 3.23614C10.8989 3.36507 10.724 3.4375 10.5417 3.4375H8.61667C7.579 3.4375 6.84108 3.4375 6.2645 3.48517C5.69617 3.531 5.34325 3.61992 5.06367 3.762C4.50325 4.0476 4.0476 4.50325 3.762 5.06367C3.61992 5.34325 3.53192 5.69617 3.48517 6.2645C3.43842 6.842 3.4375 7.579 3.4375 8.61667V13.3833C3.4375 14.4219 3.4375 15.1589 3.48517 15.7355C3.531 16.3038 3.61992 16.6568 3.762 16.9363C4.0476 17.4968 4.50325 17.9524 5.06367 18.238C5.34325 18.3801 5.69617 18.4681 6.2645 18.5148C6.842 18.5616 7.579 18.5625 8.61667 18.5625H13.3833C14.4219 18.5625 15.1589 18.5625 15.7355 18.5148C16.3038 18.469 16.6568 18.3801 16.9363 18.238C17.4968 17.9524 17.9524 17.4968 18.238 16.9363C18.3801 16.6568 18.4681 16.3038 18.5148 15.7355C18.5616 15.158 18.5625 14.421 18.5625 13.3833V11.4583C18.5625 11.276 18.6349 11.1011 18.7639 10.9722C18.8928 10.8433 19.0677 10.7708 19.25 10.7708C19.4323 10.7708 19.6072 10.8433 19.7361 10.9722C19.8651 11.1011 19.9375 11.276 19.9375 11.4583V13.4136C19.9375 14.4146 19.9375 15.2084 19.8853 15.8473C19.8321 16.5018 19.7203 17.0546 19.4636 17.5606C19.046 18.3796 18.3798 19.0454 17.5606 19.4627C17.0546 19.7203 16.5018 19.8321 15.8473 19.8853C15.2084 19.9375 14.4146 19.9375 13.4136 19.9375H8.58642C7.58542 19.9375 6.79158 19.9375 6.15267 19.8853C5.49817 19.8321 4.94542 19.7203 4.44033 19.4636C3.62096 19.0461 2.9548 18.38 2.53733 17.5606C2.27975 17.0546 2.16792 16.5018 2.11475 15.8473C2.0625 15.2084 2.0625 14.4146 2.0625 13.4136V8.58642C2.0625 7.58542 2.0625 6.79158 2.11475 6.15267C2.16792 5.49817 2.27975 4.94542 2.53642 4.44033C2.95412 3.62082 3.62062 2.95464 4.44033 2.53733C4.9445 2.27975 5.49817 2.16792 6.15267 2.11475C6.79158 2.0625 7.58542 2.0625 8.58642 2.0625ZM13.5208 5.27083C13.5208 4.84951 13.6038 4.43231 13.7651 4.04306C13.9263 3.6538 14.1626 3.30012 14.4605 3.0022C14.7585 2.70428 15.1121 2.46795 15.5014 2.30672C15.8906 2.14549 16.3078 2.0625 16.7292 2.0625C17.1505 2.0625 17.5677 2.14549 17.9569 2.30672C18.3462 2.46795 18.6999 2.70428 18.9978 3.0022C19.2957 3.30012 19.532 3.6538 19.6933 4.04306C19.8545 4.43231 19.9375 4.84951 19.9375 5.27083C19.9375 6.12174 19.5995 6.93779 18.9978 7.53947C18.3961 8.14115 17.5801 8.47917 16.7292 8.47917C15.8783 8.47917 15.0622 8.14115 14.4605 7.53947C13.8589 6.93779 13.5208 6.12174 13.5208 5.27083Z" fill="black"/>
<path d="M8.58642 2.0625H10.5417C10.724 2.0625 10.8989 2.13493 11.0278 2.26386C11.1567 2.3928 11.2292 2.56766 11.2292 2.75C11.2292 2.93234 11.1567 3.1072 11.0278 3.23614C10.8989 3.36507 10.724 3.4375 10.5417 3.4375H8.61667C7.579 3.4375 6.84108 3.4375 6.2645 3.48517C5.69617 3.531 5.34325 3.61992 5.06367 3.762C4.50325 4.0476 4.0476 4.50325 3.762 5.06367C3.61992 5.34325 3.53192 5.69617 3.48517 6.2645C3.43842 6.842 3.4375 7.579 3.4375 8.61667V13.3833C3.4375 14.4219 3.4375 15.1589 3.48517 15.7355C3.531 16.3038 3.61992 16.6568 3.762 16.9363C4.0476 17.4968 4.50325 17.9524 5.06367 18.238C5.34325 18.3801 5.69617 18.4681 6.2645 18.5148C6.842 18.5616 7.579 18.5625 8.61667 18.5625H13.3833C14.4219 18.5625 15.1589 18.5625 15.7355 18.5148C16.3038 18.469 16.6568 18.3801 16.9363 18.238C17.4968 17.9524 17.9524 17.4968 18.238 16.9363C18.3801 16.6568 18.4681 16.3038 18.5148 15.7355C18.5616 15.158 18.5625 14.421 18.5625 13.3833V11.4583C18.5625 11.276 18.6349 11.1011 18.7639 10.9722C18.8928 10.8433 19.0677 10.7708 19.25 10.7708C19.4323 10.7708 19.6072 10.8433 19.7361 10.9722C19.8651 11.1011 19.9375 11.276 19.9375 11.4583V13.4136C19.9375 14.4146 19.9375 15.2084 19.8853 15.8473C19.8321 16.5018 19.7203 17.0546 19.4636 17.5606C19.046 18.3796 18.3798 19.0454 17.5606 19.4627C17.0546 19.7203 16.5018 19.8321 15.8473 19.8853C15.2084 19.9375 14.4146 19.9375 13.4136 19.9375H8.58642C7.58542 19.9375 6.79158 19.9375 6.15267 19.8853C5.49817 19.8321 4.94542 19.7203 4.44033 19.4636C3.62096 19.0461 2.9548 18.38 2.53733 17.5606C2.27975 17.0546 2.16792 16.5018 2.11475 15.8473C2.0625 15.2084 2.0625 14.4146 2.0625 13.4136V8.58642C2.0625 7.58542 2.0625 6.79158 2.11475 6.15267C2.16792 5.49817 2.27975 4.94542 2.53642 4.44033C2.95412 3.62082 3.62062 2.95464 4.44033 2.53733C4.9445 2.27975 5.49817 2.16792 6.15267 2.11475C6.79158 2.0625 7.58542 2.0625 8.58642 2.0625ZM13.5208 5.27083C13.5208 4.84951 13.6038 4.43231 13.7651 4.04306C13.9263 3.6538 14.1626 3.30012 14.4605 3.0022C14.7585 2.70428 15.1121 2.46795 15.5014 2.30672C15.8906 2.14549 16.3078 2.0625 16.7292 2.0625C17.1505 2.0625 17.5677 2.14549 17.9569 2.30672C18.3462 2.46795 18.6999 2.70428 18.9978 3.0022C19.2957 3.30012 19.532 3.6538 19.6933 4.04306C19.8545 4.43231 19.9375 4.84951 19.9375 5.27083C19.9375 6.12174 19.5995 6.93779 18.9978 7.53947C18.3961 8.14115 17.5801 8.47917 16.7292 8.47917C15.8783 8.47917 15.0622 8.14115 14.4605 7.53947C13.8589 6.93779 13.5208 6.12174 13.5208 5.27083Z" fill="black"/>
</svg>
