<svg width="22" height="22" viewBox="0 0 22 22" fill="none" xmlns="http://www.w3.org/2000/svg">
<path d="M6.1875 12.7188H10.3125C11.4667 12.7188 12.574 13.1681 13.4023 13.9609L12.8887 14.4209C12.5849 14.138 12.2368 13.9055 11.8564 13.7354C11.3708 13.5181 10.8445 13.4063 10.3125 13.4062H6.1875C4.10221 13.4062 2.40625 15.1022 2.40625 17.1875V20.2812H1.71875V17.1875C1.71875 14.7236 3.7236 12.7188 6.1875 12.7188ZM20.2812 14.0938V17.5312H19.5938V15.2676L16.0557 18.8057C15.9912 18.8701 15.9036 18.9062 15.8125 18.9062C15.7214 18.9062 15.6338 18.8701 15.5693 18.8057L13.9941 17.2295L13.751 16.9863L13.5078 17.2295L10.5967 20.1387L10.1104 19.6523L13.5078 16.2568C13.5562 16.2085 13.6175 16.1763 13.6836 16.1631L13.75 16.1562H13.751C13.8419 16.1564 13.9288 16.1926 13.9932 16.2568L15.8125 18.0762L19.1074 14.7812H16.8438V14.0938H20.2812ZM8.25 1.71875C9.43519 1.71875 10.5721 2.18929 11.4102 3.02734C12.2482 3.8654 12.7188 5.00231 12.7188 6.1875C12.7188 7.37269 12.2482 8.5096 11.4102 9.34766C10.5721 10.1857 9.43519 10.6562 8.25 10.6562C7.06481 10.6562 5.9279 10.1857 5.08984 9.34766C4.25179 8.5096 3.78125 7.37269 3.78125 6.1875C3.78125 5.00231 4.25179 3.8654 5.08984 3.02734C5.9279 2.18929 7.06481 1.71875 8.25 1.71875ZM18.2188 1.71875V3.09375H20.2812V3.78125H16.1562V5.84375H19.25C19.8184 5.84375 20.2812 6.30711 20.2812 6.875V8.25C20.2812 8.81846 19.8185 9.28125 19.25 9.28125H18.2188V10.6562H17.5312V9.28125H15.4688V8.59375H19.5938V6.53125H16.5C15.9315 6.53125 15.4688 6.06846 15.4688 5.5V4.125C15.4688 3.55711 15.9316 3.09375 16.5 3.09375H17.5312V1.71875H18.2188ZM8.25 2.40625C7.24715 2.40625 6.28529 2.80455 5.57617 3.51367C4.86705 4.22279 4.46875 5.18465 4.46875 6.1875C4.46875 7.19035 4.86705 8.15221 5.57617 8.86133C6.28529 9.57045 7.24715 9.96875 8.25 9.96875C9.25285 9.96875 10.2147 9.57045 10.9238 8.86133C11.633 8.15221 12.0313 7.19035 12.0312 6.1875L12.0264 6C11.98 5.06542 11.5886 4.17847 10.9238 3.51367C10.2147 2.80455 9.25285 2.40625 8.25 2.40625Z" fill="black" stroke="#2A2A2A" stroke-width="0.6875"/>
</svg>
