<svg width="18" height="18" viewBox="0 0 18 18" fill="none" xmlns="http://www.w3.org/2000/svg">
<path d="M0.6875 0.0126953H16.5C16.8735 0.0126953 17.1758 0.313968 17.1758 0.6875V16.5C17.1758 16.8735 16.8735 17.1758 16.5 17.1758H0.6875C0.313968 17.1758 0.0126953 16.8735 0.0126953 16.5V0.6875C0.0126953 0.313968 0.313968 0.0126953 0.6875 0.0126953ZM1.53516 15.6533H15.6533V1.53516H1.53516V15.6533ZM3.60938 3.4502H5.32812C5.41591 3.4502 5.48828 3.52159 5.48828 3.60938V13.5781C5.48828 13.6659 5.41591 13.7383 5.32812 13.7383H3.60938C3.52159 13.7383 3.4502 13.6659 3.4502 13.5781V3.60938C3.4502 3.52159 3.52159 3.4502 3.60938 3.4502ZM11.8594 3.4502H13.5781C13.6659 3.4502 13.7383 3.52159 13.7383 3.60938V9.10938C13.7383 9.19716 13.6659 9.26953 13.5781 9.26953H11.8594C11.7716 9.26953 11.7002 9.19716 11.7002 9.10938V3.60938C11.7002 3.52159 11.7716 3.4502 11.8594 3.4502ZM7.73438 3.4502H9.45312C9.54091 3.4502 9.61328 3.52159 9.61328 3.60938V7.5625C9.61328 7.65029 9.54091 7.72266 9.45312 7.72266H7.73438C7.64659 7.72266 7.5752 7.65029 7.5752 7.5625V3.60938C7.5752 3.52159 7.64659 3.4502 7.73438 3.4502Z" fill="black" stroke="#2A2A2A" stroke-width="0.0244141"/>
</svg>
