<svg width="22" height="22" viewBox="0 0 22 22" fill="none" xmlns="http://www.w3.org/2000/svg">
<path d="M19.2441 5.76172V16.9248L10.3125 21.3799L1.38086 16.9248V5.76172L10.3125 1.2959L19.2441 5.76172ZM10.9971 10.7363L10.9941 10.7305V19.5078H11.0137L11.0029 19.5137L17.8779 16.0762L17.8809 16.083V7.30469H17.8613L17.8721 7.29883L10.9971 10.7363ZM6.18457 4.89258L3.5957 6.18164L3.59863 6.1875L3.60352 6.19629L3.5957 6.19336L10.3096 9.54492L10.3076 9.54785L10.3154 9.54492L12.8721 8.27734L12.8662 8.26562L12.8643 8.2627L12.8721 8.26562L6.19043 4.89258L6.19238 4.88965L6.18457 4.89258ZM10.3096 2.83008L7.7207 4.11914L7.72363 4.125L7.72852 4.13379L7.7207 4.13086L14.3916 7.50391L14.3896 7.50684L14.3975 7.50391L17.0293 6.19336L17.0234 6.18164L17.0215 6.17871L17.0293 6.18164L10.3154 2.83008L10.3174 2.82715L10.3096 2.83008ZM9.62793 10.7363L2.75293 7.29883L2.75 7.30469L2.74414 7.31738V16.0703H2.73633L2.74707 16.0762L9.62207 19.5137L9.63086 19.4961V10.7422H9.63867L9.62793 10.7363Z" fill="#6356FA" stroke="#6356FA" stroke-width="0.012207"/>
</svg>
