<svg width="22" height="22" viewBox="0 0 22 22" fill="none" xmlns="http://www.w3.org/2000/svg">
<g clip-path="url(#clip0_317_3306)">
<path d="M12.1858 0C12.5092 0 12.7985 0.2013 12.9074 0.5027L13.684 2.6554C13.962 2.72433 14.2018 2.79473 14.4034 2.8666C14.6234 2.94507 14.9094 3.06607 15.2614 3.2296L17.0698 2.2726C17.2174 2.19404 17.3864 2.16561 17.5515 2.19161C17.7166 2.2176 17.8688 2.29661 17.985 2.4167L19.5756 4.0612C19.7868 4.2801 19.8462 4.6002 19.7274 4.8796L18.8793 6.8673C19.0194 7.12543 19.1323 7.3469 19.2181 7.5317C19.3105 7.7319 19.4249 8.01057 19.5613 8.3677L21.538 9.2147C21.835 9.3412 22.0187 9.6382 21.9989 9.9561L21.8537 12.2386C21.8438 12.3869 21.7906 12.529 21.7006 12.6473C21.6107 12.7656 21.488 12.8549 21.3477 12.9041L19.4755 13.5696C19.422 13.8277 19.3655 14.0499 19.3061 14.2362C19.21 14.5249 19.1006 14.809 18.9783 15.0876L19.9188 17.1666C19.9857 17.3126 20.0039 17.4762 19.9706 17.6333C19.9373 17.7904 19.8544 17.9326 19.734 18.0389L17.9454 19.6361C17.8279 19.7413 17.6809 19.8078 17.5243 19.8267C17.3677 19.8456 17.209 19.8159 17.0698 19.7417L15.2262 18.7649C14.9381 18.9182 14.6405 19.0531 14.3352 19.1686L13.53 19.47L12.815 21.45C12.7615 21.5947 12.6658 21.7199 12.5403 21.8096C12.4148 21.8992 12.2652 21.9491 12.111 21.9527L10.021 22C9.8627 22.0037 9.70708 21.9584 9.57538 21.8704C9.44369 21.7825 9.34234 21.656 9.28514 21.5083L8.44254 19.2786C8.15512 19.1801 7.87048 19.0738 7.58894 18.9596C7.35873 18.8599 7.132 18.7525 6.90914 18.6373L4.81914 19.5305C4.68148 19.5895 4.52959 19.6071 4.38208 19.5811C4.23457 19.5552 4.09784 19.4867 3.98864 19.3842L2.44204 17.9333C2.32646 17.826 2.24774 17.685 2.21712 17.5303C2.1865 17.3756 2.20555 17.2152 2.27154 17.072L3.17024 15.114C3.05114 14.8819 2.94034 14.6456 2.83804 14.4056C2.71888 14.1117 2.60883 13.8142 2.50804 13.5135L0.539038 12.914C0.378989 12.8656 0.239392 12.7658 0.141927 12.6299C0.0444617 12.494 -0.00541664 12.3298 3.80051e-05 12.1627L0.077038 10.0496C0.0827581 9.91179 0.125924 9.77814 0.201897 9.66302C0.27787 9.5479 0.383777 9.45565 0.508238 9.3962L2.57404 8.404C2.66937 8.05347 2.7537 7.7792 2.82704 7.5812C2.93083 7.31528 3.04607 7.05396 3.17244 6.798L2.27704 4.906C2.20857 4.76243 2.18765 4.60077 2.21733 4.4445C2.247 4.28823 2.32571 4.14549 2.44204 4.037L3.98644 2.5784C4.09456 2.47605 4.23003 2.40724 4.37645 2.38029C4.52288 2.35335 4.67397 2.36944 4.81144 2.4266L6.89924 3.289C7.1295 3.13573 7.33924 3.0096 7.52844 2.9106C7.75357 2.7918 8.05571 2.66493 8.43484 2.53L9.16084 0.5049C9.21505 0.357051 9.3133 0.22938 9.44233 0.1391C9.57136 0.0488197 9.72496 0.00027127 9.88244 0L12.1858 0ZM11.6468 1.5147H10.4225L9.75704 3.3781C9.71741 3.48647 9.65394 3.58455 9.5713 3.66509C9.48867 3.74563 9.38899 3.80657 9.27964 3.8434C8.80004 4.0029 8.45354 4.1404 8.25114 4.2471C8.03554 4.36077 7.76421 4.5331 7.43714 4.7641C7.3307 4.83917 7.20696 4.88602 7.07748 4.90026C6.94801 4.91449 6.81705 4.89565 6.69684 4.8455L4.68384 4.015L3.89954 4.7564L4.71684 6.4834C4.76577 6.58615 4.79061 6.69871 4.78946 6.81251C4.78832 6.92631 4.76122 7.03835 4.71024 7.1401C4.49024 7.5812 4.34174 7.9068 4.26694 8.107C4.15175 8.44011 4.05263 8.77857 3.96994 9.1212C3.9423 9.2284 3.89155 9.32825 3.82124 9.41376C3.75093 9.49927 3.66277 9.56836 3.56294 9.6162L1.59394 10.5611L1.55434 11.6391L3.33634 12.1803C3.57284 12.2518 3.75984 12.4333 3.83794 12.6665C4.01467 13.196 4.154 13.5832 4.25594 13.8281C4.39003 14.138 4.53832 14.4415 4.70034 14.7378C4.75515 14.8397 4.78557 14.953 4.78919 15.0686C4.79282 15.1843 4.76956 15.2992 4.72124 15.4044L3.89514 17.2062L4.67724 17.941L6.63744 17.1028C6.74297 17.0574 6.85731 17.0363 6.97208 17.0409C7.08685 17.0454 7.19915 17.0756 7.30074 17.1292C7.70407 17.3404 8.00071 17.4863 8.19064 17.567C8.38314 17.6473 8.75164 17.7815 9.28624 17.9641C9.39211 18.0008 9.4887 18.0602 9.56926 18.1381C9.64981 18.216 9.7124 18.3105 9.75264 18.4151L10.5314 20.4732L11.55 20.4512L12.2067 18.6318C12.2448 18.5283 12.3047 18.4341 12.3823 18.3557C12.4599 18.2774 12.5535 18.2166 12.6566 18.1775L13.7973 17.7507C14.0863 17.6444 14.435 17.4757 14.8434 17.2447C14.9563 17.181 15.0834 17.1467 15.213 17.1452C15.3426 17.1436 15.4705 17.1748 15.5848 17.2359L17.3195 18.1544L18.2952 17.2843L17.4416 15.4C17.3977 15.3033 17.3749 15.1983 17.3747 15.0921C17.3745 14.9859 17.397 14.8809 17.4405 14.784C17.6407 14.3363 17.776 13.9986 17.8442 13.783C17.9124 13.5703 17.9803 13.2678 18.0477 12.8755C18.0708 12.7425 18.129 12.618 18.2162 12.515C18.3034 12.4119 18.4165 12.334 18.5438 12.2892L20.3566 11.6457L20.4358 10.3917L18.6538 9.6283C18.5592 9.58748 18.4738 9.52809 18.4026 9.45364C18.3313 9.3792 18.2757 9.29121 18.2391 9.1949C18.1123 8.84417 17.9736 8.49783 17.8233 8.1565C17.6813 7.8592 17.5272 7.56782 17.3613 7.2831C17.3037 7.18256 17.2703 7.07002 17.2636 6.95433C17.2569 6.83865 17.2772 6.723 17.3228 6.6165L18.1203 4.7465L17.2799 3.8775L15.6431 4.7443C15.5364 4.80123 15.4177 4.83219 15.2967 4.83467C15.1757 4.83716 15.0559 4.81109 14.9468 4.7586C14.5996 4.58542 14.2443 4.42904 13.882 4.29C13.5735 4.18582 13.2586 4.10131 12.9393 4.037C12.813 4.00958 12.6955 3.95076 12.5978 3.86598C12.5002 3.7812 12.4254 3.67318 12.3805 3.5519L11.6468 1.5147ZM11.0264 6.2051C13.7049 6.2051 15.8774 8.3534 15.8774 11.0022C15.8774 13.651 13.7049 15.7982 11.0264 15.7982C8.34794 15.7982 6.17544 13.651 6.17544 11.0022C6.17544 8.3534 8.34684 6.2062 11.0264 6.2062M11.0264 7.722C9.19274 7.722 7.70664 9.1905 7.70664 11.0033C7.70664 12.8161 9.19274 14.2857 11.0264 14.2857C12.8601 14.2857 14.3451 12.8161 14.3451 11.0033C14.3451 9.1905 12.8601 7.722 11.0264 7.722Z" fill="black"/>
</g>
<defs>
<clipPath id="clip0_317_3306">
<rect width="22" height="22" fill="white"/>
</clipPath>
</defs>
</svg>
