<svg width="19" height="10" viewBox="0 0 19 10" fill="none" xmlns="http://www.w3.org/2000/svg">
<path d="M17.9703 0.768167C17.8637 0.70551 17.7411 0.67503 17.6175 0.680397C17.4939 0.685764 17.3745 0.726749 17.2737 0.798417L14.0378 2.91867C13.9049 3.00447 13.7962 3.12292 13.722 3.26269C13.6479 3.40246 13.6108 3.5589 13.6143 3.71708V6.17558C13.6143 6.48267 13.7656 6.78975 14.0378 6.97492L17.2737 9.09425C17.3956 9.15567 17.5166 9.218 17.6376 9.218C17.7546 9.21637 17.8693 9.18447 17.9703 9.12542C18.0775 9.06176 18.167 8.97212 18.2304 8.86479C18.2939 8.75745 18.3293 8.63587 18.3333 8.51125V1.38142C18.3338 1.25583 18.3003 1.13246 18.2364 1.02434C18.1725 0.916228 18.0806 0.828315 17.9703 0.768167ZM16.9712 7.24992L14.9756 5.929V3.93158L16.9721 2.61067L16.9712 7.24992ZM8.74317 0H0.69575C0.510605 0.00358646 0.334199 0.0794162 0.204203 0.211297C0.0742063 0.343177 0.000922268 0.520656 0 0.705833V6.48267C0 8.35725 1.54275 9.89267 3.4485 9.89267H11.4968C11.6818 9.88884 11.858 9.81291 11.9878 9.68106C12.1176 9.5492 12.1908 9.37185 12.1917 9.18683V3.41C12.1917 1.53542 10.6489 0 8.74317 0ZM10.8304 8.51033H3.4485C2.299 8.51033 1.36125 7.58908 1.36125 6.48267V1.38233H8.74317C9.89267 1.38233 10.8304 2.30358 10.8304 3.41V8.51033Z" fill="#6356FA"/>
</svg>
