<svg width="35" height="35" viewBox="0 0 35 35" fill="none" xmlns="http://www.w3.org/2000/svg">
<rect width="35" height="35" rx="6" fill="#FFE2E2"/>
<path d="M13.332 25C12.8737 25 12.4815 24.8369 12.1554 24.5108C11.8293 24.1847 11.6659 23.7922 11.6654 23.3333V12.5H10.832V10.8333H14.9987V10H19.9987V10.8333H24.1654V12.5H23.332V23.3333C23.332 23.7917 23.169 24.1842 22.8429 24.5108C22.5168 24.8375 22.1243 25.0006 21.6654 25H13.332ZM21.6654 12.5H13.332V23.3333H21.6654V12.5ZM14.9987 21.6667H16.6654V14.1667H14.9987V21.6667ZM18.332 21.6667H19.9987V14.1667H18.332V21.6667Z" fill="#FF0000"/>
</svg>
