<svg width="35" height="35" viewBox="0 0 35 35" fill="none" xmlns="http://www.w3.org/2000/svg">
<rect width="35" height="35" rx="6" fill="#DADBFF"/>
<path d="M19.2167 15.0167L19.9833 15.7833L12.4333 23.3333H11.6667V22.5667L19.2167 15.0167ZM22.2167 10C22.0083 10 21.7917 10.0833 21.6333 10.2417L20.1083 11.7667L23.2333 14.8917L24.7583 13.3667C24.8356 13.2896 24.8969 13.198 24.9387 13.0972C24.9805 12.9964 25.002 12.8883 25.002 12.7792C25.002 12.67 24.9805 12.562 24.9387 12.4611C24.8969 12.3603 24.8356 12.2688 24.7583 12.1917L22.8083 10.2417C22.6417 10.075 22.4333 10 22.2167 10ZM19.2167 12.6583L10 21.875V25H13.125L22.3417 15.7833L19.2167 12.6583Z" fill="#1C21DE"/>
</svg>
